<svg width="425" height="385" viewBox="0 0 425 385" fill="none" xmlns="http://www.w3.org/2000/svg">
<g clip-path="url(#clip0)">
<path opacity="0.6" d="M100.3 50.3C100.3 50.3 52.7 96.4 38.6 148.7C24.4 201 44.9 255.9 92.8 286.3C140.7 316.7 204.7 290.3 268.3 299C331.9 307.7 390.9 282.9 398.8 219.2C406.7 155.5 360.7 147.2 332.9 85.2C305.1 23.2 214.8 -51.8 100.3 50.3Z" fill="#FDB913"/>
<path opacity="0.7" d="M100.3 50.3C100.3 50.3 52.7 96.4 38.6 148.7C24.4 201 44.9 255.9 92.8 286.3C140.7 316.7 204.7 290.3 268.3 299C331.9 307.7 390.9 282.9 398.8 219.2C406.7 155.5 360.7 147.2 332.9 85.2C305.1 23.2 214.8 -51.8 100.3 50.3Z" fill="white"/>
<path d="M218.1 384.2C324.691 384.2 411.1 368.843 411.1 349.9C411.1 330.957 324.691 315.6 218.1 315.6C111.509 315.6 25.1 330.957 25.1 349.9C25.1 368.843 111.509 384.2 218.1 384.2Z" fill="#FDB913"/>
<path opacity="0.5" d="M218.1 384.2C324.691 384.2 411.1 368.843 411.1 349.9C411.1 330.957 324.691 315.6 218.1 315.6C111.509 315.6 25.1 330.957 25.1 349.9C25.1 368.843 111.509 384.2 218.1 384.2Z" fill="white"/>
<path d="M407.4 172.7C407.4 172.7 407.4 168.5 401.5 162.6C395.6 156.7 391.8 153.4 391.8 153.4C391.8 153.4 388.9 163.1 394.3 168.9C399.8 174.8 407.3 180.2 407.3 180.2V172.7H407.4Z" fill="#72BF00"/>
<path d="M398.8 198.9C398.8 198.9 398.8 194.7 392.9 188.8C387 182.9 383.2 179.6 383.2 179.6C383.2 179.6 380.3 189.3 385.7 195.1C391.2 201 398.7 206.4 398.7 206.4V198.9H398.8Z" fill="#72BF00"/>
<path d="M407 179.8C407 179.8 407.4 175.6 413.9 170.4C420.4 165.2 424.5 162.2 424.5 162.2C424.5 162.2 426.4 172.1 420.4 177.4C414.3 182.7 406.2 187.3 406.2 187.3L407 179.8Z" fill="#72BF00"/>
<path d="M396.7 210.8C396.7 210.8 397.6 206.7 404.6 202.2C411.6 197.7 416 195.2 416 195.2C416 195.2 416.9 205.3 410.3 209.9C403.7 214.5 395.2 218.3 395.2 218.3L396.7 210.8Z" fill="#72BF00"/>
<path d="M398.6 244.6C398.6 244.6 398.6 240.4 404.5 234.5C410.4 228.6 414.2 225.3 414.2 225.3C414.2 225.3 417.1 235 411.7 240.8C406.2 246.7 398.7 252.1 398.7 252.1V244.6H398.6Z" fill="#72BF00"/>
<path d="M398.5 252.9C398.5 252.9 399.1 248.7 394.1 242.1C389.1 235.4 385.8 231.6 385.8 231.6C385.8 231.6 381.5 240.7 386.1 247.3C390.7 253.9 397.4 260.4 397.4 260.4L398.5 252.9Z" fill="#72BF00"/>
<path d="M392.7 277.3C392.7 277.3 392.7 273.1 398.6 267.2C404.5 261.3 408.3 258 408.3 258C408.3 258 411.2 267.7 405.8 273.5C400.3 279.4 392.8 284.8 392.8 284.8V277.3H392.7Z" fill="#72BF00"/>
<path d="M396.6 299.5C396.6 299.5 395.5 295.4 399.7 288.3C403.9 281.1 406.7 276.9 406.7 276.9C406.7 276.9 412 285.5 408.2 292.6C404.4 299.7 398.5 306.9 398.5 306.9L396.6 299.5Z" fill="#72BF00"/>
<path d="M407.9 171.6C407.6 176.1 407 180.7 406.3 184.6C404 196.6 398.2 204.4 395.8 215.2C393.5 226.1 400.2 240 398.4 254C396.6 267.9 391.2 275.7 392.7 285C394.3 294.3 402.6 320.4 402.6 320.4" stroke="#263238" stroke-width="0.75" stroke-miterlimit="10" stroke-linecap="round" stroke-linejoin="round"/>
<path d="M406.9 182.6L413.3 177.8" stroke="#263238" stroke-width="0.75" stroke-miterlimit="10" stroke-linecap="round" stroke-linejoin="round"/>
<path d="M407.2 177L404.6 172.3" stroke="#263238" stroke-width="0.75" stroke-miterlimit="10" stroke-linecap="round" stroke-linejoin="round"/>
<path d="M396.2 214.8C396.2 214.8 401.5 210.8 407 206.8" stroke="#263238" stroke-width="0.75" stroke-miterlimit="10" stroke-linecap="round" stroke-linejoin="round"/>
<path d="M398.5 205.7C398.5 205.7 394.4 197.8 389.3 192" stroke="#263238" stroke-width="0.75" stroke-miterlimit="10" stroke-linecap="round" stroke-linejoin="round"/>
<path d="M398.8 250.6C398.8 250.6 402.9 242.5 410.2 235.4" stroke="#263238" stroke-width="0.75" stroke-miterlimit="10" stroke-linecap="round" stroke-linejoin="round"/>
<path d="M397.8 256.5C397.8 256.5 395.1 250.2 392.1 245.6C389 241 388.6 240.4 388.6 240.4" stroke="#263238" stroke-width="0.75" stroke-miterlimit="10" stroke-linecap="round" stroke-linejoin="round"/>
<path d="M392.7 285C392.7 285 394.8 279.6 397.5 275.3C400.2 271 403.7 267.2 403.7 267.2" stroke="#263238" stroke-width="0.75" stroke-miterlimit="10" stroke-linecap="round" stroke-linejoin="round"/>
<path d="M398.6 306.8C398.6 306.8 398 301.8 400.2 297.5C402.4 293.2 404.9 287.6 405.9 285.4" stroke="#263238" stroke-width="0.75" stroke-miterlimit="10" stroke-linecap="round" stroke-linejoin="round"/>
<path d="M368.8 228.8C368.8 228.8 368.3 226.2 371.4 221.8C374.5 217.5 376.5 215 376.5 215C376.5 215 379.4 220.7 376.6 225C373.8 229.3 369.7 233.5 369.7 233.5L368.8 228.8Z" fill="#72BF00"/>
<path d="M377 244.3C377 244.3 376.5 241.7 379.6 237.3C382.7 233 384.7 230.5 384.7 230.5C384.7 230.5 387.6 236.2 384.8 240.5C382 244.8 377.9 249 377.9 249L377 244.3Z" fill="#72BF00"/>
<path d="M369.8 233.3C369.8 233.3 369.1 230.7 364.4 228.2C359.8 225.6 356.9 224.2 356.9 224.2C356.9 224.2 356.8 230.6 361.2 233.3C365.6 236 371.1 238 371.1 238L369.8 233.3Z" fill="#72BF00"/>
<path d="M379.7 251.6C379.7 251.6 378.7 249.1 373.8 247C368.9 244.9 365.9 243.8 365.9 243.8C365.9 243.8 366.5 250.2 371.1 252.4C375.7 254.6 381.5 256 381.5 256L379.7 251.6Z" fill="#72BF00"/>
<path d="M382.1 273C382.1 273 381.6 270.4 377.3 267.3C373 264.2 370.2 262.6 370.2 262.6C370.2 262.6 369.4 269 373.5 272.1C377.6 275.2 382.9 277.8 382.9 277.8L382.1 273Z" fill="#72BF00"/>
<path d="M383.1 278.1C383.1 278.1 382.3 275.6 384.7 270.8C387.1 266.1 388.7 263.3 388.7 263.3C388.7 263.3 392.4 268.6 390.2 273.2C388 277.8 384.5 282.6 384.5 282.6L383.1 278.1Z" fill="#72BF00"/>
<path d="M390.5 299.4C390.5 299.4 390.8 296.7 395 293.5C399.1 290.2 401.8 288.4 401.8 288.4C401.8 288.4 403 294.7 399.1 298C395.2 301.3 390 304.2 390 304.2L390.5 299.4Z" fill="#72BF00"/>
<path d="M389.4 292.8C389.4 292.8 388.9 290.2 384.6 287.1C380.3 284 377.5 282.4 377.5 282.4C377.5 282.4 376.7 288.8 380.8 291.9C384.9 295 390.2 297.6 390.2 297.6L389.4 292.8Z" fill="#72BF00"/>
<path d="M389.3 307.2C389.3 307.2 389.5 304.5 386.1 300.5C382.7 296.5 380.5 294.1 380.5 294.1C380.5 294.1 378.1 300.1 381.3 304.1C384.4 308.1 388.9 312 388.9 312L389.3 307.2Z" fill="#72BF00"/>
<path d="M368.4 228.2C369.1 231 369.9 233.8 370.8 236.2C373.6 243.5 378 247.7 380.7 254.3C383.3 260.9 380.7 270.3 383.3 278.9C385.9 287.4 390.2 291.7 390.2 297.7C390.2 303.7 387.9 320.4 387.9 320.4" stroke="#263238" stroke-width="0.75" stroke-miterlimit="10" stroke-linecap="round" stroke-linejoin="round"/>
<path d="M370.2 235L365.7 232.6" stroke="#263238" stroke-width="0.75" stroke-miterlimit="10" stroke-linecap="round" stroke-linejoin="round"/>
<path d="M369.4 231.5L370.5 228.3" stroke="#263238" stroke-width="0.75" stroke-miterlimit="10" stroke-linecap="round" stroke-linejoin="round"/>
<path d="M380.4 254C380.4 254 376.6 252.1 372.8 250.2" stroke="#263238" stroke-width="0.75" stroke-miterlimit="10" stroke-linecap="round" stroke-linejoin="round"/>
<path d="M377.8 248.3C377.8 248.3 379.7 243.2 382.2 239.1" stroke="#263238" stroke-width="0.75" stroke-miterlimit="10" stroke-linecap="round" stroke-linejoin="round"/>
<path d="M382.6 276.7C382.6 276.7 379.1 272.1 373.8 268.4" stroke="#263238" stroke-width="0.75" stroke-miterlimit="10" stroke-linecap="round" stroke-linejoin="round"/>
<path d="M383.9 280.3C383.9 280.3 384.9 276 386.3 272.8C387.7 269.6 388 269.2 388 269.2" stroke="#263238" stroke-width="0.75" stroke-miterlimit="10" stroke-linecap="round" stroke-linejoin="round"/>
<path d="M390 302.2C390 302.2 393 298.5 394.8 297.2C396.7 295.8 397.9 294.5 397.9 294.5" stroke="#263238" stroke-width="0.75" stroke-miterlimit="10" stroke-linecap="round" stroke-linejoin="round"/>
<path d="M390.2 297.7C390.2 297.7 388.3 294.6 386.2 292.2C384.1 289.8 381.4 287.8 381.4 287.8" stroke="#263238" stroke-width="0.75" stroke-miterlimit="10" stroke-linecap="round" stroke-linejoin="round"/>
<path d="M388.9 312C388.9 312 388.7 308.8 386.9 306.3C385 303.9 382.9 300.6 382 299.3" stroke="#263238" stroke-width="0.75" stroke-miterlimit="10" stroke-linecap="round" stroke-linejoin="round"/>
<path d="M406.7 335.5H383C381.6 335.5 380.5 334.4 380.5 333V318.2H409.2V333C409.1 334.4 408 335.5 406.7 335.5Z" fill="#263238" stroke="#263238" stroke-miterlimit="10" stroke-linecap="round" stroke-linejoin="round"/>
<path d="M42.9 192.5C42.9 192.5 42.9 188.9 37.9 183.9C32.9 178.9 29.7 176 29.7 176C29.7 176 27.2 184.2 31.8 189.2C36.4 194.2 42.9 198.8 42.9 198.8V192.5Z" fill="#72BF00"/>
<path d="M35.6 214.8C35.6 214.8 35.6 211.2 30.6 206.2C25.6 201.2 22.4 198.3 22.4 198.3C22.4 198.3 19.9 206.5 24.5 211.5C29.1 216.5 35.6 221.1 35.6 221.1V214.8Z" fill="#72BF00"/>
<path d="M42.5 198.6C42.5 198.6 42.9 195 48.4 190.6C53.9 186.2 57.4 183.7 57.4 183.7C57.4 183.7 59 192.1 53.9 196.6C48.8 201.1 41.9 205 41.9 205L42.5 198.6Z" fill="#72BF00"/>
<path d="M33.8 224.9C33.8 224.9 34.5 221.4 40.5 217.6C46.4 213.8 50.2 211.6 50.2 211.6C50.2 211.6 50.9 220.2 45.3 224.1C39.7 228 32.4 231.2 32.4 231.2L33.8 224.9Z" fill="#72BF00"/>
<path d="M35.4 253.7C35.4 253.7 35.4 250.1 40.4 245.1C45.4 240.1 48.6 237.2 48.6 237.2C48.6 237.2 51.1 245.4 46.5 250.4C41.9 255.4 35.4 260 35.4 260V253.7V253.7Z" fill="#72BF00"/>
<path d="M35.3 260.7C35.3 260.7 35.8 257.2 31.6 251.5C27.4 245.8 24.6 242.6 24.6 242.6C24.6 242.6 21 250.4 24.8 256C28.7 261.6 34.4 267.1 34.4 267.1L35.3 260.7Z" fill="#72BF00"/>
<path d="M30.4 281.5C30.4 281.5 30.4 277.9 35.4 272.9C40.4 267.9 43.6 265 43.6 265C43.6 265 46.1 273.2 41.5 278.2C36.9 283.2 30.4 287.8 30.4 287.8V281.5V281.5Z" fill="#72BF00"/>
<path d="M33.7 300.3C33.7 300.3 32.8 296.8 36.4 290.7C40 284.6 42.4 281 42.4 281C42.4 281 46.9 288.3 43.7 294.3C40.5 300.3 35.4 306.4 35.4 306.4L33.7 300.3Z" fill="#72BF00"/>
<path d="M43.3 191.6C43 195.4 42.6 199.4 41.9 202.7C39.9 212.9 35 219.5 33 228.7C31 237.9 36.7 249.8 35.2 261.7C33.7 273.6 29.1 280.1 30.4 288.1C31.7 296 38.8 318.2 38.8 318.2" stroke="#263238" stroke-width="0.75" stroke-miterlimit="10" stroke-linecap="round" stroke-linejoin="round"/>
<path d="M42.5 201L47.9 196.8" stroke="#263238" stroke-width="0.75" stroke-miterlimit="10" stroke-linecap="round" stroke-linejoin="round"/>
<path d="M42.7 196.2L40.5 192.2" stroke="#263238" stroke-width="0.75" stroke-miterlimit="10" stroke-linecap="round" stroke-linejoin="round"/>
<path d="M33.3 228.3C33.3 228.3 37.8 224.9 42.5 221.5" stroke="#263238" stroke-width="0.75" stroke-miterlimit="10" stroke-linecap="round" stroke-linejoin="round"/>
<path d="M35.4 220.6C35.4 220.6 31.9 213.9 27.6 209" stroke="#263238" stroke-width="0.75" stroke-miterlimit="10" stroke-linecap="round" stroke-linejoin="round"/>
<path d="M35.6 258.8C35.6 258.8 39.1 251.9 45.3 245.9" stroke="#263238" stroke-width="0.75" stroke-miterlimit="10" stroke-linecap="round" stroke-linejoin="round"/>
<path d="M34.7001 263.8C34.7001 263.8 32.4 258.4 29.8 254.5C27.2 250.6 26.8 250.1 26.8 250.1" stroke="#263238" stroke-width="0.75" stroke-miterlimit="10" stroke-linecap="round" stroke-linejoin="round"/>
<path d="M30.4 288C30.4 288 32.2 283.4 34.5 279.8C36.8 276.2 39.8 272.9 39.8 272.9" stroke="#263238" stroke-width="0.75" stroke-miterlimit="10" stroke-linecap="round" stroke-linejoin="round"/>
<path d="M35.4 306.5C35.4 306.5 34.9 302.2 36.8 298.6C38.7 295 40.8 290.2 41.7 288.3" stroke="#263238" stroke-width="0.75" stroke-miterlimit="10" stroke-linecap="round" stroke-linejoin="round"/>
<path d="M10.1 240.2C10.1 240.2 9.70003 238 12.3 234.3C14.9 230.6 16.6 228.5 16.6 228.5C16.6 228.5 19.1 233.4 16.7 237C14.3 240.6 10.8 244.3 10.8 244.3L10.1 240.2Z" fill="#72BF00"/>
<path d="M17.1 253.4C17.1 253.4 16.7 251.2 19.3 247.5C21.9 243.8 23.6 241.7 23.6 241.7C23.6 241.7 26.1 246.6 23.7 250.2C21.3 253.8 17.8 257.5 17.8 257.5L17.1 253.4Z" fill="#72BF00"/>
<path d="M11 244C11 244 10.4 241.8 6.40002 239.6C2.50002 237.4 1.88453e-05 236.2 1.88453e-05 236.2C1.88453e-05 236.2 -0.0999813 241.7 3.60002 243.9C7.30002 246.2 12.1 247.9 12.1 247.9L11 244Z" fill="#72BF00"/>
<path d="M19.3 259.6C19.3 259.6 18.5 257.5 14.3 255.7C10.2 253.9 7.60004 253 7.60004 253C7.60004 253 8.10004 258.4 12 260.3C15.9 262.2 20.8 263.4 20.8 263.4L19.3 259.6Z" fill="#72BF00"/>
<path d="M21.4 277.8C21.4 277.8 21 275.6 17.3 273C13.6 270.4 11.3 269 11.3 269C11.3 269 10.6 274.4 14.1 277.1C17.6 279.7 22.1 281.9 22.1 281.9L21.4 277.8Z" fill="#72BF00"/>
<path d="M22.2 282.2C22.2 282.2 21.5 280 23.5 276C25.5 272 26.9 269.6 26.9 269.6C26.9 269.6 30 274.1 28.2 278C26.4 281.9 23.4 286 23.4 286L22.2 282.2Z" fill="#72BF00"/>
<path d="M28.5 300.3C28.5 300.3 28.8 298 32.3 295.2C35.8 292.4 38.1 290.8 38.1 290.8C38.1 290.8 39.1 296.2 35.8 299C32.5 301.8 28.1 304.3 28.1 304.3L28.5 300.3Z" fill="#72BF00"/>
<path d="M27.6 294.7C27.6 294.7 27.2 292.5 23.5 289.9C19.8 287.3 17.5 285.9 17.5 285.9C17.5 285.9 16.8 291.3 20.3 294C23.8 296.6 28.3 298.8 28.3 298.8L27.6 294.7Z" fill="#72BF00"/>
<path d="M27.5 306.9C27.5 306.9 27.7 304.6 24.8 301.2C21.9 297.8 20 295.8 20 295.8C20 295.8 18 300.9 20.6 304.3C23.3 307.7 27.1 311 27.1 311L27.5 306.9Z" fill="#72BF00"/>
<path d="M9.70001 239.7C10.3 242.1 11 244.5 11.8 246.5C14.1 252.7 18 256.3 20.2 261.9C22.4 267.5 20.2 275.5 22.4 282.8C24.6 290.1 28.2 293.7 28.3 298.8C28.3 303.9 26.3 318.1 26.3 318.1" stroke="#263238" stroke-width="0.75" stroke-miterlimit="10" stroke-linecap="round" stroke-linejoin="round"/>
<path d="M11.2 245.5L7.40002 243.5" stroke="#263238" stroke-width="0.75" stroke-miterlimit="10" stroke-linecap="round" stroke-linejoin="round"/>
<path d="M10.6 242.5L11.5 239.8" stroke="#263238" stroke-width="0.75" stroke-miterlimit="10" stroke-linecap="round" stroke-linejoin="round"/>
<path d="M20 261.7C20 261.7 16.8 260.1 13.5 258.4" stroke="#263238" stroke-width="0.75" stroke-miterlimit="10" stroke-linecap="round" stroke-linejoin="round"/>
<path d="M17.7 256.8C17.7 256.8 19.3 252.5 21.4 248.9" stroke="#263238" stroke-width="0.75" stroke-miterlimit="10" stroke-linecap="round" stroke-linejoin="round"/>
<path d="M21.8 281C21.8 281 18.9 277.1 14.3 274" stroke="#263238" stroke-width="0.75" stroke-miterlimit="10" stroke-linecap="round" stroke-linejoin="round"/>
<path d="M22.9 284.1C22.9 284.1 23.7 280.5 25 277.8C26.2 275.1 26.4 274.7 26.4 274.7" stroke="#263238" stroke-width="0.75" stroke-miterlimit="10" stroke-linecap="round" stroke-linejoin="round"/>
<path d="M28.1 302.7C28.1 302.7 30.6 299.6 32.2 298.4C33.8 297.2 34.9 296.1 34.9 296.1" stroke="#263238" stroke-width="0.75" stroke-miterlimit="10" stroke-linecap="round" stroke-linejoin="round"/>
<path d="M28.3 298.8C28.3 298.8 26.7 296.1 24.9 294.1C23.1 292.1 20.8 290.3 20.8 290.3" stroke="#263238" stroke-width="0.75" stroke-miterlimit="10" stroke-linecap="round" stroke-linejoin="round"/>
<path d="M27.2001 310.9C27.2001 310.9 27.1 308.2 25.5 306.1C23.9 304 22.1 301.3 21.3 300.2" stroke="#263238" stroke-width="0.75" stroke-miterlimit="10" stroke-linecap="round" stroke-linejoin="round"/>
<path d="M44.7 335.5H20.9C19.5 335.5 18.4 334.4 18.4 333V318.2H47.1V333C47.1 334.4 46 335.5 44.7 335.5Z" fill="#263238" stroke="#263238" stroke-miterlimit="10" stroke-linecap="round" stroke-linejoin="round"/>
<path d="M291.8 132.4C291.8 132.4 286.7 138.1 284.9 147.4C283.1 156.7 278.5 174.3 279.1 180.3C279.7 186.4 281.1 189.8 286.6 190.8C292.1 191.8 295.2 187 296.4 182.9C297.5 178.8 298.1 174.7 298.1 174.7L299.2 152.4C299.2 152.4 297.2 139 296.2 136.2C295.2 133.3 291.8 132.4 291.8 132.4Z" fill="#FDB913" stroke="#263238" stroke-miterlimit="10" stroke-linecap="round" stroke-linejoin="round"/>
<path d="M365.3 127.9C365.3 127.9 367.3 127.5 369.2 134.4C371.1 141.3 373.4 151.3 377.1 163.6C380.9 175.9 381.6 179.9 381.3 182.7C381 185.4 378.8 188.5 371.3 188.5C363.8 188.5 360.3 185.6 358.3 179.1C356.3 172.6 356.6 152.5 356.4 149.9C356.3 147.3 363 126.6 365.3 127.9Z" fill="#FDB913" stroke="#263238" stroke-miterlimit="10" stroke-linecap="round" stroke-linejoin="round"/>
<path d="M313.7 343.6C313.7 343.6 308.8 348.8 305.9 352.1C303 355.4 302 357.4 306.8 359.5C311.6 361.5 318.9 358.5 321.1 355.2C323.3 351.9 327.9 348.1 327.9 348.1C327.9 348.1 330.4 345.4 327.2 341.5C324 337.5 315.2 342 313.7 343.6Z" fill="white" stroke="#263238" stroke-miterlimit="10" stroke-linecap="round" stroke-linejoin="round"/>
<path d="M343.2 347.9C343.2 347.9 348.1 348.6 350.7 350.9C353.3 353.2 362.4 358.3 368.5 355.8C374.6 353.3 370.7 349.3 367.3 346.4C364 343.5 361.2 342.1 361.2 342.1C361.2 342.1 351.5 341.4 347.2 343.5C342.9 345.8 343.2 347.9 343.2 347.9Z" fill="white" stroke="#263238" stroke-miterlimit="10" stroke-linecap="round" stroke-linejoin="round"/>
<path d="M308.1 280.7C308.1 280.7 310.4 298 309.3 303.2C308.1 308.4 304.8 311.4 307.3 316.5C309.8 321.6 311.1 327 311.3 328.8C311.6 330.5 310 331 311.3 332.8C312.6 334.6 313.6 336.3 313.6 336.7C313.6 337.1 311.9 339.6 311.9 340.2C311.9 340.8 312.8 344.4 312.8 344.4C312.8 344.4 317.4 343.4 320.7 344.7C324 346 327.5 348.6 327.5 348.6C327.5 348.6 330.5 347.4 331.5 345.7C332.5 344 332.4 343.2 332.5 342.7C332.6 342.1 334.1 339.1 333.9 336.8C333.8 334.5 332.2 329.6 332.2 326.7C332.2 323.8 334.4 320.6 334.4 316C334.4 311.4 332.2 281.8 332.2 281.8L334.2 281.1C334.2 281.1 337.4 298.7 337.4 307C337.4 315.2 334.9 325.5 336.5 327.5C338.1 329.5 340 331.3 340 331.7C340 332.1 338.1 335.3 338.6 336.9C339 338.5 340.3 342.4 340.3 343.3C340.3 344.2 341.9 347.5 343.2 348.1C344.5 348.7 345.2 347.4 352.9 345.8C360.6 344.2 364.9 344.6 364.2 342.3C363.5 340 362.8 337 361.9 336.4C361 335.8 362.2 335.4 361.9 333.2C361.6 331 360 328.7 358.6 325.3C357.2 321.8 359.2 318.1 359.8 314.5C360.4 310.9 359.5 305.5 358.1 299.6C356.7 293.7 358 279.2 358 279.2L358.7 273.6C358.7 273.6 336.6 275.6 323 275.5C309.4 275.4 308.4 275.4 308.4 275.4C308.4 275.4 307.2 276.1 308.1 280.7Z" fill="#263238" stroke="#263238" stroke-miterlimit="10" stroke-linecap="round" stroke-linejoin="round"/>
<path d="M364.1 220.4C364.1 220.4 366.1 246.7 368.7 260.4C371.3 274.1 371.6 283.8 371.6 283.8C371.6 283.8 361.5 283.8 361.1 283.8C360.7 283.8 361.8 235.1 362.1 230.8C362.4 226.4 364.1 220.4 364.1 220.4Z" fill="#FDB913" stroke="#263238" stroke-miterlimit="10" stroke-linecap="round" stroke-linejoin="round"/>
<path d="M320.6 113.3C320.6 113.3 308.3 121.5 302 124.4C295.6 127.3 292.2 131 291.7 132.3C291.3 133.6 298.6 154.4 298.6 154.4C298.6 154.4 298.2 223 298.2 234.6C298.2 246.2 294.6 281 295 281C295.4 281 307 288.5 322.9 288.9C338.8 289.3 343.8 287 348.9 287C354 287 363.9 287 364.1 285.6C364.2 284.2 364.4 252.2 364.5 237.3C364.6 222.4 364.8 211.9 364.5 209.4C364.2 206.9 360.2 154.1 360.2 154.1C360.2 154.1 363.2 145.3 365 138.2C366.7 131.1 366.7 130.3 364.6 127.1C362.4 123.9 346.1 115.4 343.2 114.2C340.3 113 335 112 332.2 111.9C329.5 111.9 320.6 113.3 320.6 113.3Z" fill="#FDB913" stroke="#263238" stroke-miterlimit="10" stroke-linecap="round" stroke-linejoin="round"/>
<path d="M293.5 172.1C293.5 172.1 295.4 176.4 297.7 178.3C300 180.2 305.4 181 306.5 183.9C307.7 186.8 306.5 189 305.2 192.4C303.9 195.9 304.6 201.6 299.9 202.4C295.1 203.1 293.7 201.4 289.8 198.6C285.9 195.9 283.4 195.4 281.1 191.2C278.8 187 278.1 181.2 280.1 178.1" fill="#FDB913"/>
<path d="M293.5 172.1C293.5 172.1 295.4 176.4 297.7 178.3C300 180.2 305.4 181 306.5 183.9C307.7 186.8 306.5 189 305.2 192.4C303.9 195.9 304.6 201.6 299.9 202.4C295.1 203.1 293.7 201.4 289.8 198.6C285.9 195.9 283.4 195.4 281.1 191.2C278.8 187 278.1 181.2 280.1 178.1" stroke="#263238" stroke-miterlimit="10" stroke-linecap="round" stroke-linejoin="round"/>
<path d="M320.1 107.7L319.7 119.8C319.7 119.8 318.5 121.5 325.5 122C332.4 122.4 338.8 121 338.8 121L337.6 107.9C337.6 107.9 330.4 110.9 326.2 109.5C321.9 108 320.1 107.7 320.1 107.7Z" fill="white" stroke="#263238" stroke-miterlimit="10" stroke-linecap="round" stroke-linejoin="round"/>
<path d="M317.3 104.6C317.3 104.6 316.3 118.6 315.6 122.8C314.9 127 315 129.6 316.6 130.6C318.2 131.6 327.4 135.2 332.2 134.9C337 134.6 344.2 130.3 344.8 129C345.4 127.7 340.5 107.3 340.5 107.3L339.8 108.2C339.8 108.2 341.1 118.9 340.7 119.2C340.3 119.5 323.5 118.3 320.5 118.2C317.5 118.1 318.3 117.9 318.3 117.9L318.2 105.6L317.3 104.6Z" fill="white" stroke="#263238" stroke-miterlimit="10" stroke-linecap="round" stroke-linejoin="round"/>
<path d="M316.9 121.3C316.9 121.3 332.7 123.6 342.2 121.8" stroke="#263238" stroke-width="0.5" stroke-miterlimit="10"/>
<path d="M316.2 124.9C316.2 124.9 327.2 129.6 342.1 125.4" stroke="#263238" stroke-width="0.5" stroke-miterlimit="10"/>
<path d="M317.4 129.3C317.4 129.3 327.9 134.9 342.2 129" stroke="#263238" stroke-width="0.5" stroke-miterlimit="10"/>
<path d="M342.9 89.9C343.3 85.5 343.6 80.9 342.5 78.6C340.8 75 335.6 70.8 328.1 71.1C320.6 71.4 314.2 74.3 314.4 83.5C314.4 83.5 314.7 86.2 315.1 89.6C314.8 90.3 314.1 92.1 314.4 94.3C314.7 96.4 315.6 97.9 316 98.6C316.1 99.5 316.1 100.2 316.1 100.8C316.2 104.7 318.8 109.3 321.2 110.9C323.5 112.5 327.8 114.9 330.6 114.9C333.3 114.9 338.3 112.3 340.6 108.5C342.4 105.5 342.6 103.5 342.6 100H342.7C342.7 100 343.3 97.7 343.4 94.4C343.4 92.5 343.1 90.9 342.9 89.9Z" fill="white" stroke="#263238" stroke-miterlimit="10" stroke-linecap="round" stroke-linejoin="round"/>
<path d="M315.6 90.8C315.6 90.8 316 94.4 316.8 94.3C317.5 94.2 318.4 89 318.4 89L315.6 90.8Z" fill="#263238" stroke="#263238" stroke-miterlimit="10" stroke-linecap="round" stroke-linejoin="round"/>
<path d="M340.2 90.3C340.2 90.3 340.2 94.3 341.2 94.9C342.2 95.5 342.9 91.4 342.9 91.4C342.9 91.4 341.2 90.3 340.2 90.3Z" fill="#263238" stroke="#263238" stroke-miterlimit="10" stroke-linecap="round" stroke-linejoin="round"/>
<path d="M342.5 78.6C340.8 75 335.6 70.8 328.1 71.1C320.6 71.4 314.2 74.3 314.4 83.5C314.4 83.5 314.7 86.2 315.1 89.6C314.8 90.1 314.4 91.3 314.3 92.7C317.1 90.5 322.4 87.2 329 87.8C335 88.3 340.2 90.9 343.4 92.9C343.3 91.6 343.1 90.5 343 89.8C343.3 85.5 343.6 80.9 342.5 78.6Z" fill="#FDB913" stroke="#263238" stroke-miterlimit="10" stroke-linecap="round" stroke-linejoin="round"/>
<path d="M327 93.4L326.1 98.6C326.1 98.6 324.5 98.7 325.1 99.8C325.7 100.8 328.7 102 330.2 101.5C331.6 101.1 333.1 99.6 332.9 99C332.8 98.4 332.2 98.3 332.2 98.3L330.3 93" stroke="#263238" stroke-miterlimit="10" stroke-linecap="round" stroke-linejoin="round"/>
<path d="M325.4 104.1C325.4 104.1 329 105.1 333.8 103.8" stroke="#263238" stroke-miterlimit="10" stroke-linecap="round" stroke-linejoin="round"/>
<path d="M323.8 93.1001C323.8 93.9001 323.4 94.5001 322.9 94.5001C322.4 94.5001 322 93.9001 322 93.1001C322 92.3001 322.4 91.7001 322.9 91.7001C323.4 91.8001 323.8 92.4001 323.8 93.1001Z" fill="#263238"/>
<path d="M334.8 93.1001C334.8 93.9001 334.4 94.5001 333.9 94.5001C333.4 94.5001 333 93.9001 333 93.1001C333 92.3001 333.4 91.7001 333.9 91.7001C334.4 91.7001 334.8 92.3001 334.8 93.1001Z" fill="#263238"/>
<path d="M320.5 91C320.5 91 321.5 88.5001 324.7 89.4001" stroke="#263238" stroke-miterlimit="10" stroke-linecap="round" stroke-linejoin="round"/>
<path d="M331.2 89.6C331.2 89.6 334.2 87.4 336.4 91.2" stroke="#263238" stroke-miterlimit="10" stroke-linecap="round" stroke-linejoin="round"/>
<path d="M303.9 190.2C303.9 190.2 312.7 192.2 314.7 191.8C316.7 191.4 319 190.6 321.6 188C324.2 185.4 326.4 183.2 326.4 185.4C326.4 187.6 325.5 188.9 324.5 190C323.5 191.2 321.6 192.5 321.2 194.3C320.8 196.2 321.3 197.6 323.7 198.5C326 199.4 333.2 200.7 333.2 202.5C333.2 204.3 332.6 208.7 330 210.2C327.4 211.6 321 210.6 321 210.6C321 210.6 326.2 213.5 325.2 214.2C324.2 214.9 321.2 213.9 319.7 212.6C318.3 211.3 317.7 211.2 313.5 208.1C309.3 205.1 305.7 201.5 303.7 200.3C301.7 199.1 301.8 199.3 300.7 198.3C299.5 197.3 299.1 195.3 300 193C300.9 190.7 303.2 190 303.2 190L303.9 190.2Z" fill="white" stroke="#263238" stroke-miterlimit="10" stroke-linecap="round" stroke-linejoin="round"/>
<path d="M372.5 173.7C372.5 173.7 362.1 175.7 361.1 176.4C360.1 177.1 361.1 180.2 361.1 180.2C361.1 180.2 352.3 184.4 349 186.7C345.7 189 348.7 193.6 348.9 194.2C348.9 194.2 351.5 202.7 355.8 205.6C360.1 208.5 364.6 207.5 368.9 202.9C373.2 198.3 376 191.9 378 189.8C380 187.6 382.2 185.6 381.5 180.8C380.8 176 377 175.5 377 175.5" fill="#FDB913"/>
<path d="M372.5 173.7C372.5 173.7 362.1 175.7 361.1 176.4C360.1 177.1 361.1 180.2 361.1 180.2C361.1 180.2 352.3 184.4 349 186.7C345.7 189 348.7 193.6 348.9 194.2C348.9 194.2 351.5 202.7 355.8 205.6C360.1 208.5 364.6 207.5 368.9 202.9C373.2 198.3 376 191.9 378 189.8C380 187.6 382.2 185.6 381.5 180.8C380.8 176 377 175.5 377 175.5" stroke="#263238" stroke-miterlimit="10" stroke-linecap="round" stroke-linejoin="round"/>
<path d="M351.3 192.8C351.3 192.8 344.7 194.5 342.8 194.7C340.9 194.8 340.6 195.1 339.5 194.3C338.3 193.4 333 190.3 330.5 187.4C328 184.5 326.2 183.9 326.5 185.5C326.8 187.1 326.2 188.2 327.9 189.4C329.6 190.6 331.4 193.7 331.4 195C331.4 196.3 331.3 196.7 327.6 198C324 199.3 315.8 200.9 316.6 201.9C317.5 202.9 319.2 203.2 321.1 203.1C323 203 330.8 201.8 331.4 202.2C332 202.6 332.3 204.1 331 204.9C329.7 205.8 325.1 205.8 322.3 206.1C319.6 206.4 319.4 207.1 320.6 207.7C321.8 208.3 324.1 208.7 326.4 208.7C328.7 208.7 331.4 208.5 330.2 209.2C329 209.9 327.5 210.1 324.6 210.5C321.7 210.9 320.7 209.6 321.1 210.8C321.5 212 325 212 329.3 211.8C333.6 211.7 337.5 210.1 340.4 208.3C343.3 206.6 353.8 204 354.6 203.4C355.3 202.8 356.5 199.5 355.8 195.5C355 191.3 351.3 192.8 351.3 192.8Z" fill="white" stroke="#263238" stroke-miterlimit="10" stroke-linecap="round" stroke-linejoin="round"/>
<path d="M362.7 175.9C362.7 175.9 367.8 171.7 371.8 169.8" stroke="#263238" stroke-miterlimit="10" stroke-linecap="round" stroke-linejoin="round"/>
<path d="M322.8 203.1C322.8 203.1 331 202.2 331.8 202C332.6 201.9 334.2 202.8 333.4 203.9C332.7 205 332.3 204.7 329.4 205.3C326.5 205.9 322 205.9 320.6 205.9" fill="white"/>
<path d="M322.8 203.1C322.8 203.1 331 202.2 331.8 202C332.6 201.9 334.2 202.8 333.4 203.9C332.7 205 332.3 204.7 329.4 205.3C326.5 205.9 322 205.9 320.6 205.9" stroke="#263238" stroke-miterlimit="10" stroke-linecap="round" stroke-linejoin="round"/>
<path d="M323.8 208.7C323.8 208.7 333 208.1 332.7 208.8C332.5 209.5 331.9 210.4 328.6 210.7C325.3 210.9 321.5 211.2 318.5 209.6" fill="white"/>
<path d="M323.8 208.7C323.8 208.7 333 208.1 332.7 208.8C332.5 209.5 331.9 210.4 328.6 210.7C325.3 210.9 321.5 211.2 318.5 209.6" stroke="#263238" stroke-miterlimit="10" stroke-linecap="round" stroke-linejoin="round"/>
<path d="M232.1 336.5C232.1 336.5 233.7 338.1 227.4 341.9C221.2 345.7 216 347.4 216 349.7C216 352 222.9 354.2 230 352.5C237.1 350.8 240 350.3 244 349.6C248 348.9 249.2 345.5 249.2 340.6C249.2 335.8 238.7 334.6 237.4 334.4C236.3 334 233 334.6 232.1 336.5Z" fill="white" stroke="#263238" stroke-miterlimit="10" stroke-linecap="round" stroke-linejoin="round"/>
<path d="M247.7 340.4C247.7 340.4 243.6 346.8 238.2 350.8C232.8 354.8 232.2 356.7 234.9 357.7C237.7 358.7 245.6 359.1 251 357C256.4 354.9 258.9 351.8 260.5 350.4C262.1 349 262.9 349.9 262.9 344.4C262.9 338.9 257 337 252.2 337.3C247.3 337.7 247.7 340.4 247.7 340.4Z" fill="white" stroke="#263238" stroke-miterlimit="10" stroke-linecap="round" stroke-linejoin="round"/>
<path d="M226.6 227.8C226.6 227.8 228.2 259.2 228.7 268.4C229.2 277.6 233 311.9 233.7 320.1C234.4 328.2 234.4 330.6 234.4 330.6C234.4 330.6 231.3 332.8 231.3 333.4C231.3 334 231 338.8 231 338.8C231 338.8 234.3 340.7 238.3 341.7C242.3 342.7 246.8 342.2 246.8 342.2C246.8 342.2 252.5 344.1 257.3 345.5C262.1 346.9 264 346.2 264 346.2C264 346.2 265.4 339.3 265.7 337C266 334.8 271.9 310.9 271.9 300C271.9 289.1 270.5 284.1 268.4 277.7C266.3 271.3 271.2 248.5 272.9 240.2C274.6 231.9 275.1 226.2 275.1 226.2C275.1 226.2 260.3 233.8 226.6 227.8Z" fill="#263238" stroke="#263238" stroke-miterlimit="10" stroke-linecap="round" stroke-linejoin="round"/>
<path d="M246 238.3C246 238.3 245.1 261.3 245.1 270.1C245.1 278.9 247.3 289.6 248.4 300C249.4 310.4 248.7 327.3 247.5 330.2C246.3 333.1 245.4 334.2 245.6 336.4C245.8 338.6 245.9 341.8 245.9 341.8" stroke="white" stroke-miterlimit="10" stroke-linecap="round" stroke-linejoin="round"/>
<path d="M243.2 104.6C243.2 104.6 242.2 101.5 240.6 102.7C239 103.9 240.1 106.2 241.5 108.4C242.9 110.6 244.4 111.2 244.6 110C244.7 108.7 243.2 104.6 243.2 104.6Z" fill="white" stroke="#263238" stroke-miterlimit="10" stroke-linecap="round" stroke-linejoin="round"/>
<path d="M243.2 106L241.5 101C241.5 101 234.2 98.1 236.5 90.8C238.7 83.5 256 77 260.7 77C265.4 77 274.4 83.2 275.9 90.5C277.5 97.8 272.3 104.3 272.3 104.3C272.3 104.3 270.1 110.7 268.3 110.3C266.6 110 267.6 104.9 265.4 101C263.2 97 261.8 95 259.4 96C257 97 247 100 246.1 101.4C245.1 102.7 243.5 106.8 243.2 106Z" fill="#263238" stroke="#263238" stroke-miterlimit="10" stroke-linecap="round" stroke-linejoin="round"/>
<path d="M278.3 177.2L279.2 181.7L268.5 198.3L270.9 202.1C270.9 202.1 277.8 197.8 284.7 190.2C291.6 182.6 292.3 181.6 292.3 178.4C292.3 175.3 289.9 169.9 289.9 169.9C289.9 169.9 285 177.2 278.3 177.2Z" fill="white" stroke="#263238" stroke-miterlimit="10" stroke-linecap="round" stroke-linejoin="round"/>
<path d="M219.7 167.1C219.7 167.1 216.2 175.4 216.9 178C217.6 180.6 229.5 195.8 229.5 195.8L231.6 190.1C231.6 190.1 227.1 180.8 227.1 177.7C227.1 174.6 228.7 168.5 228.7 168.5L219.7 167.1Z" stroke="#263238" stroke-miterlimit="10" stroke-linecap="round" stroke-linejoin="round"/>
<path d="M250.3 126C250.3 126 235.4 131.7 232.7 132.6C229.9 133.5 228 134 227.9 134.8C227.7 135.7 219.4 156.9 217.9 159.9C216.3 162.8 214.3 166.1 214.3 166.1C214.3 166.1 217.6 168.2 220.5 169.6C223.4 171 227.2 171.8 227.2 171.8L228.2 183.7L218 228.6C218 228.6 238.4 234.3 252 233.8C265.7 233.3 274.8 229.8 277.4 229C280 228.1 284 226.6 284 226.6L271 177.7L272 170.4L272.7 177.5C272.7 177.5 279.6 179.1 283.6 178C287.6 177 292.6 173 292.6 173L279.8 133.1L256 126.5L250.3 126Z" fill="#FDB913" stroke="#263238" stroke-miterlimit="10" stroke-linecap="round" stroke-linejoin="round"/>
<path d="M267.1 129.6L256 126.5L250.3 126C250.3 126 248.1 126.9 245.2 128C245.1 130.7 245 135.4 245 140.9C245 149.9 246 157.8 248.6 156.3C251.2 154.7 263.6 138 265.7 133.3C266.4 131.7 266.8 130.5 267.1 129.6Z" fill="#FDB913" stroke="#263238" stroke-miterlimit="10" stroke-linecap="round" stroke-linejoin="round"/>
<path d="M272.1 170.4C271.8 170.1 270.2 155.2 270.2 155.2" stroke="#263238" stroke-miterlimit="10" stroke-linecap="round" stroke-linejoin="round"/>
<path d="M227.1 171.8C227.1 171.8 225.9 165.9 226.2 163.7C226.5 161.5 229 148.1 229 148.1" stroke="#263238" stroke-miterlimit="10" stroke-linecap="round" stroke-linejoin="round"/>
<path d="M233 196.7C233 196.7 225.1 199.3 225.1 199.8C225.1 200.3 224.9 202.7 224.9 202.7L233 198.9V196.7Z" stroke="#263238" stroke-miterlimit="10" stroke-linecap="round" stroke-linejoin="round"/>
<path d="M254.1 197.9L253.7 200.1L271 204.6L271.9 202.9L254.1 197.9Z" stroke="#263238" stroke-miterlimit="10" stroke-linecap="round" stroke-linejoin="round"/>
<path d="M259.8 163.5C259.3 163.5 258.9 163.1 258.9 162.6C258.9 159.6 260.4 152.4 261.8 145.4C263 139.8 264 134.6 264 132.9C264 130.8 263.3 129.2 262.1 128C260 126.1 256.4 125.3 251.2 125.7C240.4 126.5 239.6 150.7 239.6 150.9C239.6 151.4 239.2 151.8 238.7 151.8C238.2 151.8 237.8 151.4 237.8 150.9C237.8 149.8 238.7 124.9 251.1 123.9C256.8 123.5 260.9 124.4 263.4 126.7C265 128.2 265.9 130.4 265.9 132.9C265.9 134.7 264.8 139.8 263.6 145.8C262.2 152.4 260.7 159.9 260.7 162.7C260.7 163.1 260.3 163.5 259.8 163.5Z" fill="#263238" stroke="#263238" stroke-miterlimit="10" stroke-linecap="round" stroke-linejoin="round"/>
<path d="M248.4 120.6C248.4 120.6 248.4 125.6 248.2 126.6C248 127.6 248.2 132 248.2 137.8C248.2 143.6 249.2 147.6 250.6 146.3C252 144.9 261.1 132.6 261.7 130.2C262.2 127.8 262.2 126.1 262.2 126.1L262.9 119.2C262.9 119.2 252.2 122.3 247.7 120.9" fill="white"/>
<path d="M248.4 120.6C248.4 120.6 248.4 125.6 248.2 126.6C248 127.6 248.2 132 248.2 137.8C248.2 143.6 249.2 147.6 250.6 146.3C252 144.9 261.1 132.6 261.7 130.2C262.2 127.8 262.2 126.1 262.2 126.1L262.9 119.2C262.9 119.2 252.2 122.3 247.7 120.9" stroke="#263238" stroke-miterlimit="10" stroke-linecap="round" stroke-linejoin="round"/>
<path d="M266.2 110.3C266.2 110.3 267.6 117.9 266.9 128.4C266.2 138.9 265 143.9 261.9 145.4C258.8 146.9 262.8 148.6 267.5 148.8C272.2 149 279.1 148.3 280.3 134.5C281.5 120.7 271.5 111.7 270.6 110C269.6 108.2 266.9 108.4 266.2 110.3Z" fill="#263238" stroke="#263238" stroke-miterlimit="10" stroke-linecap="round" stroke-linejoin="round"/>
<path d="M232.5 163C232.5 163 232.4 163 232.5 163C231.9 163 231.6 162.5 231.6 162C231.6 161.5 232.6 149.9 238.7 149.9C244.9 149.9 244.9 161 244.9 161.5C244.9 162 244.5 162.4 244 162.4C243.5 162.4 243.1 162 243.1 161.5C243.1 161.4 243 151.7 238.6 151.7C234.9 151.7 233.5 159.2 233.3 162.1C233.3 162.7 232.9 163 232.5 163Z" fill="#263238"/>
<path d="M232.5 161.4C232.5 161.4 232.5 170 232.8 171.8C233.1 173.5 237.5 177.2 242.6 179.4" stroke="#263238" stroke-width="2" stroke-miterlimit="10" stroke-linecap="round" stroke-linejoin="round"/>
<path d="M243.7 160.4C243.7 160.4 244 169 242.3 172.8C240.6 176.6 235.4 178.2 233.1 179" stroke="#263238" stroke-width="2" stroke-miterlimit="10" stroke-linecap="round" stroke-linejoin="round"/>
<path d="M245.1 179.7C245.1 178.8 244.4 178.1 243.5 178.1C242.6 178.1 241.9 178.8 241.9 179.7C241.9 180.6 242.6 181.3 243.5 181.3C244.4 181.3 245.1 180.6 245.1 179.7Z" fill="white" stroke="#263238" stroke-miterlimit="10" stroke-linecap="round" stroke-linejoin="round"/>
<path d="M234.4 179.4C234.4 178.5 233.7 177.8 232.8 177.8C231.9 177.8 231.2 178.5 231.2 179.4C231.2 180.3 231.9 181 232.8 181C233.7 181 234.4 180.3 234.4 179.4Z" fill="white" stroke="#263238" stroke-miterlimit="10" stroke-linecap="round" stroke-linejoin="round"/>
<path d="M265 165.9C265 162.9 262.6 160.5 259.6 160.5C256.6 160.5 254.2 162.9 254.2 165.9C254.2 168.9 256.6 171.3 259.6 171.3C262.6 171.3 265 168.9 265 165.9Z" fill="white" stroke="#263238" stroke-miterlimit="10" stroke-linecap="round" stroke-linejoin="round"/>
<path d="M262.5 165.9C262.5 164.3 261.2 163 259.6 163C258 163 256.7 164.3 256.7 165.9C256.7 167.5 258 168.8 259.6 168.8C261.2 168.9 262.5 167.5 262.5 165.9Z" fill="white" stroke="#263238" stroke-miterlimit="10" stroke-linecap="round" stroke-linejoin="round"/>
<path d="M262.5 92.5C262.5 92.5 247.5 98.4 245.6 99.4C243.7 100.4 243 100.6 243 100.6C243 100.6 243.9 113.7 244.2 117.2C244.5 120.7 250.1 123.9 254.9 123.8C259.7 123.6 263.7 121 264.6 119.5C265.5 117.9 267.9 113.3 267.9 113.3C267.9 113.3 273.6 112.3 273.9 107.3C274.2 102.3 272.5 103.3 270.6 104.4C268.7 105.4 267.7 106.1 267.7 106.1C267.7 106.1 268.4 103.3 266.8 100.7C265.3 98 262.9 94.9 262.5 92.5Z" fill="white" stroke="#263238" stroke-miterlimit="10" stroke-linecap="round" stroke-linejoin="round"/>
<path d="M250.3 108.6C250.3 108.6 251.7 110.7 252.9 110.5" stroke="#263238" stroke-miterlimit="10" stroke-linecap="round" stroke-linejoin="round"/>
<path d="M249.8 111.7C249.8 111.7 252.7 114.5 257.7 112.2" stroke="#263238" stroke-miterlimit="10" stroke-linecap="round" stroke-linejoin="round"/>
<path d="M257.2 104.4C257.2 104.4 260.7 102.8 262.7 105.6" stroke="#263238" stroke-width="1.5" stroke-miterlimit="10" stroke-linecap="round" stroke-linejoin="round"/>
<path d="M250.3 104.1C250.3 104.1 247.5 102.4 245.5 103.8" stroke="#263238" stroke-width="1.5" stroke-miterlimit="10" stroke-linecap="round" stroke-linejoin="round"/>
<path d="M252.3 103.4C252.3 106.1 250.1 108.3 247.4 108.3C244.7 108.3 242.5 106.1 242.5 103.4C242.5 100.7 244.7 98.5 247.4 98.5C250.1 98.5 252.3 100.7 252.3 103.4Z" stroke="#263238" stroke-miterlimit="10" stroke-linecap="round" stroke-linejoin="round"/>
<path d="M264.5 104.8C264.5 107.5 262.3 109.7 259.6 109.7C256.9 109.7 254.7 107.5 254.7 104.8C254.7 102.1 256.9 99.9 259.6 99.9C262.3 99.9 264.5 102.1 264.5 104.8Z" stroke="#263238" stroke-miterlimit="10" stroke-linecap="round" stroke-linejoin="round"/>
<path d="M252.3 103.4C252.3 103.4 253.2 103 254.4 103.8" stroke="#263238" stroke-miterlimit="10" stroke-linecap="round" stroke-linejoin="round"/>
<path d="M264.6 105.6L269.4 104.9" stroke="#263238" stroke-miterlimit="10" stroke-linecap="round" stroke-linejoin="round"/>
<path d="M61.5 337.7C61.5 337.7 59.5 342.1 56.6 345.6C53.7 349.1 53 351.7 56.1 353.9C59.2 356.1 65 355.8 67.8 352.2C70.6 348.6 75.3 338.9 75.3 338.9C75.3 338.9 65.3 335.9 61.5 337.7Z" fill="white" stroke="#263238" stroke-miterlimit="10" stroke-linecap="round" stroke-linejoin="round"/>
<path d="M96.7 339.9C96.7 339.9 101.7 346.5 104.7 349.9C107.7 353.3 113.4 355 116.4 354.8C119.4 354.6 123.8 353.6 120.8 348.2C117.8 342.8 111.7 337.6 111.7 337.6C111.7 337.6 105.3 337.6 100.9 337.1C96.5 336.5 96.5 338.9 96.7 339.9Z" fill="white" stroke="#263238" stroke-miterlimit="10" stroke-linecap="round" stroke-linejoin="round"/>
<path d="M64.2 215.8C64.2 215.8 62.2 238.8 62.9 255C63.6 271.2 60.6 303.5 59.6 311.4C58.6 319.3 60.5 332.3 60.6 335.2C60.7 338.1 60.8 339.6 60.8 339.6C60.8 339.6 62.3 338.6 67.7 339.6C73.1 340.6 75.2 340.6 75.2 340.6C75.2 340.6 79.1 334 80.8 328.6C82.4 323.2 81.5 317.6 81.4 314.8C81.3 311.9 80.8 308.9 81.1 308.4C81.4 307.9 88.1 259.6 88.5 249C88.9 238.4 91.6 227.6 91.6 227.6C91.6 227.6 94.8 242.5 95 248.2C95.3 253.9 94.4 300.7 94.8 310.2C95.2 319.7 94.5 322.2 93.4 324.6C92.3 327 92.7 328.1 93.5 330C94.3 331.9 96.6 340.1 96.6 340.1C96.6 340.1 108.8 340.8 110.4 339.9C112.1 339.1 112.7 338.2 112.7 337.7C112.7 337.2 118.6 325 118 320C117.4 314.9 116.8 315.8 116.2 306.7C115.6 297.6 119.4 220.7 119.4 216.7C119.4 212.6 118.7 220.4 93.9 215.7C69.1 210.7 64.9 212.6 64.2 215.8Z" fill="#FDB913" stroke="#263238" stroke-miterlimit="10" stroke-linecap="round" stroke-linejoin="round"/>
<path d="M97.4 333.3C97.4 333.3 105.2 326.5 111.7 324.9Z" fill="white"/>
<path d="M97.4 333.3C97.4 333.3 105.2 326.5 111.7 324.9" stroke="#263238" stroke-miterlimit="10" stroke-linecap="round" stroke-linejoin="round"/>
<path d="M65.5 330.1C65.5 330.1 75.3 325.4 78.1 324.2Z" fill="white"/>
<path d="M65.5 330.1C65.5 330.1 75.3 325.4 78.1 324.2" stroke="#263238" stroke-miterlimit="10" stroke-linecap="round" stroke-linejoin="round"/>
<path d="M81.9 90.8C81.9 90.8 79.3 84.9 77.3 86.9C75.4 88.9 76.8 91.6 79.5 94.8C82.2 98 84.3 96 83.7 94.6C83.2 93.4 81.9 90.8 81.9 90.8Z" fill="white" stroke="#263238" stroke-miterlimit="10" stroke-linecap="round" stroke-linejoin="round"/>
<path d="M107.3 87.6001C107.3 87.6001 109.9 81.9001 112.1 84.6001C114.2 87.3001 109.6 94.1001 108.5 95.2001C107.4 96.4001 106.6 87.4001 106.6 87.4001L107.3 87.6001Z" fill="white" stroke="#263238" stroke-miterlimit="10" stroke-linecap="round" stroke-linejoin="round"/>
<path d="M50.4 161.6C50.4 161.6 49.7 172.1 48.8 174.8C47.9 177.5 45.9 186.5 46.3 194.4C46.6 202.3 49.8 219.6 49.8 224.8C49.9 230 48.2 231.2 50 232.6C51.7 234 55.5 238 56.8 238C58.2 238 60.2 238.7 60.2 237.7C60.2 236.7 59.5 236.9 58.9 235.5C58.3 234.1 57.1 229.9 57.1 229.4C57.1 228.9 58.6 225 58.6 225C58.6 225 59.8 229.2 60 230.6C60.2 232 62.1 232.5 62 229.9C61.9 227.4 61.8 226.4 61.7 223.7C61.6 221 59.5 218.6 58.5 217.3C57.6 215.9 56.9 215.1 56.9 214.6C56.9 214.1 59.8 196.2 59.9 189.9C60 183.7 60.1 178.6 60.5 177.4C61 176.2 63.2 165.6 63.2 165.6L50.4 161.6Z" fill="white" stroke="#263238" stroke-miterlimit="10" stroke-linecap="round" stroke-linejoin="round"/>
<path d="M133.9 162.1C133.9 162.1 134.6 172.6 135.5 175.4C136.4 178.2 138.4 187.3 138 195.2C137.6 203.1 134.5 220.1 134.5 225.3C134.4 230.5 136.1 231.9 134.3 233.1C132.6 234.3 128.8 238 127.5 237.9C126.1 237.8 124.1 238.3 124.1 237.3C124.1 236.3 124.8 236.5 125.4 235.2C126 233.9 127.2 229.8 127.2 229.3C127.2 228.8 125.7 224.8 125.7 224.8C125.7 224.8 124.5 228.9 124.3 230.2C124.1 231.5 122.2 231.9 122.3 229.3C122.4 226.8 122.5 225.8 122.6 223.1C122.7 220.4 124.8 218.2 125.8 217C126.7 215.7 127.4 214.9 127.4 214.4C127.4 213.9 124.5 195.7 124.4 189.5C124.3 183.2 124.2 178.2 123.8 176.9C123.3 175.7 121.1 164.8 121.1 164.8L133.9 162.1Z" fill="white" stroke="#263238" stroke-miterlimit="10" stroke-linecap="round" stroke-linejoin="round"/>
<path d="M87.3 110.3C87.3 110.3 77.7 114.9 71.9 117.4C66.1 119.9 58.8 123 58.9 124.2C59 125.4 52.7 149 50.7 153.9C48.7 158.8 46.9 162.7 46.9 162.7C46.9 162.7 54 167.4 58.6 168.4C63.2 169.4 67.6 169.6 67.6 169.6L62.1 218.2C62.1 218.2 73.1 222.6 90.3 222.8C107.5 223 122.3 221.1 122.3 221.1C122.3 221.1 123.9 181.1 123.8 177.2C123.7 173.3 124 170.8 124 170.8C124 170.8 128.3 171.8 131.9 170.5C135.6 169.1 138.5 167.6 138.5 167.6C138.5 167.6 130.1 134.2 128.7 129.6C127.3 125 128 124.4 126.8 123.9C125.6 123.4 112.3 117.7 108 115.1C103.7 112.6 102 112.6 98.2 111.4C94.6 110.1 89.3 108.6 87.3 110.3Z" fill="#FDB913" stroke="#263238" stroke-miterlimit="10" stroke-linecap="round" stroke-linejoin="round"/>
<path d="M124.1 170.7L121.9 140.7" stroke="#263238" stroke-miterlimit="10" stroke-linecap="round" stroke-linejoin="round"/>
<path d="M68 186.4L86.7 185.9C86.7 185.9 85.9 209.4 85.3 211.9C84.7 214.4 80.9 216.1 76 216C71.1 215.8 68.1 213.5 67.6 212.3" stroke="#263238" stroke-miterlimit="10" stroke-linecap="round" stroke-linejoin="round"/>
<path d="M66.9999 189.5L86.6999 189.3" stroke="#263238" stroke-miterlimit="10" stroke-linecap="round" stroke-linejoin="round"/>
<path d="M119 216C117.2 216.5 112.8 216.5 111.8 213.8C110.8 211.1 111.5 186.9 111.5 186.9L121.1 187.2" stroke="#263238" stroke-miterlimit="10" stroke-linecap="round" stroke-linejoin="round"/>
<path d="M111.4 189L120.5 190.3" stroke="#263238" stroke-miterlimit="10" stroke-linecap="round" stroke-linejoin="round"/>
<path d="M67.6 169.5C67.6 169.5 68.3 146.4 68 140.3" stroke="#263238" stroke-miterlimit="10" stroke-linecap="round" stroke-linejoin="round"/>
<path d="M84.5 98.9C84.5 98.9 86 112.9 86 114.4C86.1 115.9 87.8 120.1 89.4 122.3C91 124.5 95.5 131.6 97.3 130.2C99.1 128.8 104.2 121.2 104.7 117C105.2 112.8 105.4 102.8 105.4 102.8C105.4 102.8 98.8 103.1 93.9 101.4C88.9 100 84.5 98.9 84.5 98.9Z" fill="white" stroke="#263238" stroke-miterlimit="10" stroke-linecap="round" stroke-linejoin="round"/>
<path d="M77.5 78L81.1999 89.8C81.1999 89.8 82.5999 98.6 85.0999 102.1C87.5999 105.6 96.5 110.7 100.5 109.7C104.5 108.7 109.2 105 109.1 100.9C108.9 96.8 108.1 85 108.2 80.5C108.3 75.9 107.3 66.7 104.4 64.1C101.6 61.6 92.4 60 85.8 62.7C79.1 65.5 74.6 70.6 77.5 78Z" fill="#263238" stroke="#263238" stroke-miterlimit="10" stroke-linecap="round" stroke-linejoin="round"/>
<path d="M81.4 90.8C81.4 90.8 81.1 91 81.9 87.6C82.8 84.2 85.3999 82.5 85.6999 80.8C85.9999 79.1 82.4 78.6 82.8 76.1C83.2 73.6 86.6999 71.7 94.0999 70.9C101.5 70.1 106.4 74.4 106.2 76.6C106 78.8 105.3 79.1 106.4 80.7C107.5 82.2 107.9 85.1 108 86.8C108.1 88.5 109 94.6 107.4 96.4C105.8 98.3 104.6 97.9 103 96.4C101.4 94.9 100.8 92.9 97.3 92.9C93.8 92.9 92.5999 94.3 91.9999 95.6C91.3999 97 90.8 98.6 88.8 98.6C86.8 98.6 85.3 96.7 83.9 94.7C82.3 92.7 81.4 90.8 81.4 90.8Z" fill="white" stroke="#263238" stroke-miterlimit="10" stroke-linecap="round" stroke-linejoin="round"/>
<path d="M96.5999 82.6001C96.5999 82.6001 99.8999 91.7001 99.6999 92.4001C99.4999 93.1001 97.9999 95.1001 96.0999 94.9001C94.1999 94.7001 93.2999 92.5001 93.2999 92.5001" stroke="#263238" stroke-miterlimit="10" stroke-linecap="round" stroke-linejoin="round"/>
<path d="M97.4999 81.4C97.4999 81.4 96.8999 79 99.3999 78.7C101.9 78.4 104.5 80.2 105.1 80.9" stroke="#263238" stroke-width="2" stroke-miterlimit="10" stroke-linecap="round" stroke-linejoin="round"/>
<path d="M92.5999 80.4C92.5999 80.4 91.1999 79.2 89.1999 79.7C87.1999 80.2 84.7999 83.2 84.7999 83.8" stroke="#263238" stroke-width="2" stroke-miterlimit="10" stroke-linecap="round" stroke-linejoin="round"/>
<path d="M92 85.3001C92 86.1001 91.7 86.8001 91.1 86.8001C90.6 86.8001 90.1 86.1001 90.1 85.3001C90.1 84.5001 90.4 83.8001 91 83.8001C91.5 83.7001 91.9 84.4001 92 85.3001Z" fill="#263238"/>
<path d="M101.7 84.8001C101.7 85.6001 101.4 86.3001 100.8 86.3001C100.3 86.3001 99.7999 85.6001 99.7999 84.8001C99.7999 84.0001 100.1 83.3001 100.7 83.3001C101.2 83.2001 101.7 83.9001 101.7 84.8001Z" fill="#263238"/>
<path d="M92.9999 98.6C92.9999 98.6 96.2999 100.1 101.2 97.9" stroke="white" stroke-width="2" stroke-miterlimit="10" stroke-linecap="round" stroke-linejoin="round"/>
<path d="M81 113.3C81 113.3 86 130.5 91.4 141.8C96.8 153.1 101 161.1 101 161.1C101 161.1 109.1 133.9 109.1 125.1C109.1 116.3 109 115.3 109 115.3" stroke="#263238" stroke-miterlimit="10" stroke-linecap="round" stroke-linejoin="round"/>
<path d="M107 178.3H96.7L96 161.1H106.3L107 178.3Z" fill="white" stroke="#263238" stroke-miterlimit="10" stroke-linecap="round" stroke-linejoin="round"/>
<path d="M182.7 345.2C182.7 345.2 188.1 349.6 192 350.8C195.9 352 197.9 352.7 197.1 354.5C196.3 356.4 193.6 357 185.6 357.2C177.7 357.4 176.1 355.7 173.1 354.8C170.1 354 165.8 354.8 164.5 353.1C163.1 351.4 163.7 348.9 163.7 346.2C163.7 343.5 175.4 342.3 178.4 343.3C181.4 344.3 182.7 345.2 182.7 345.2Z" fill="white" stroke="#263238" stroke-miterlimit="10" stroke-linecap="round" stroke-linejoin="round"/>
<path d="M167.4 348.5C167.4 348.5 172.5 353.9 176.7 356.3C180.9 358.7 183.3 360.4 182.3 361.5C181.3 362.6 178.1 364.2 169.6 363.4C161.2 362.6 159.5 360.7 155.4 357.8C151.3 354.9 149.5 355.3 148.1 353.7C146.7 352.2 146.7 348.8 146.7 348.8L167.4 348.5Z" fill="white" stroke="#263238" stroke-miterlimit="10" stroke-linecap="round" stroke-linejoin="round"/>
<path d="M192.7 223.6C192.7 223.6 189.7 263.8 188.5 271.1C187.3 278.4 186.1 282.4 186.3 287.5C186.5 292.6 188 307.1 184.9 315.7C181.9 324.3 181.9 334.8 182.2 337.8C182.5 340.8 183.6 344.9 183.4 345.6C183.2 346.3 178.3 349 174.8 349.7C171.3 350.4 168 350.4 168 350.4C168 350.4 162.4 352.4 157.4 352.8C152.3 353.1 145.4 351.6 145.4 351.6C145.4 351.6 145.4 339.1 144.7 331C144 322.9 141.7 309.9 144.5 300.1C147.3 290.3 146.7 285.1 146.5 281.9C146.3 278.7 146.5 264.2 146.3 263.7C146.1 263.2 145.1 221 145.1 221C145.1 221 163.5 223.7 175.8 222.5C188.1 221.3 191.3 221.3 191.3 221.3C191.3 221.3 194.2 218 192.7 223.6Z" fill="#263238" stroke="#263238" stroke-miterlimit="10" stroke-linecap="round" stroke-linejoin="round"/>
<path d="M168.9 347.9C168.9 347.9 168.9 343.2 167.9 339.8C166.9 336.4 166.7 324.4 167.2 319.5C167.7 314.6 170.2 302.3 170.2 295.4C170.2 288.5 170.9 277.8 170.9 277.8" stroke="white" stroke-miterlimit="10" stroke-linecap="round" stroke-linejoin="round"/>
<path d="M203.9 274.1C203.9 274.1 185.5 273.9 184.6 273.9C183.8 273.9 183.8 261.1 183.8 261.1L203.9 274.1Z" fill="white" stroke="#263238" stroke-miterlimit="10" stroke-linecap="round" stroke-linejoin="round"/>
<path d="M163.2 225.9C163.2 225.9 182.5 227.1 193.3 225.2L189.6 134.3C189.6 134.3 187.1 130.1 180.3 127.7C173.5 125.3 165.4 128.7 162.6 131.9C159.7 135.1 161.8 225.5 161.8 225.5L163.2 225.9Z" fill="#FDB913" stroke="#263238" stroke-miterlimit="10" stroke-linecap="round" stroke-linejoin="round"/>
<path d="M164 127.8C164 127.8 144.9 137.4 142 139.1C139.1 140.8 139 146.9 139 149.7C139 152.6 139.8 280.4 139.8 280.4C139.8 280.4 149.4 281.4 161.2 278.2C173 275 180.3 269.1 180.3 269.1L177.1 200.4L173.6 140.1C173.6 140.2 171.4 123.4 164 127.8Z" fill="white" stroke="#263238" stroke-miterlimit="10" stroke-linecap="round" stroke-linejoin="round"/>
<path d="M169.7 121.6C169.7 121.6 165.3 122.1 163.5 124.6C161.6 127.1 161.1 129.5 161.1 129.5L159.4 144.7L165.1 143.3L162.2 150.1C162.2 150.1 165.1 158.5 168.3 165.6C171.5 172.7 176.2 187.2 176.2 187.2L174 141.8C174 141.8 174 128.6 173 125.8C172.1 122.9 171.1 121.6 169.7 121.6Z" fill="white" stroke="#263238" stroke-miterlimit="10" stroke-linecap="round" stroke-linejoin="round"/>
<path d="M180.7 130.9L184.1 268.5L203.9 274.1L201 169.2C201 169.2 201.5 142.2 199.8 138.5C198.1 134.8 182.9 127.2 181.4 127.4C179.9 127.5 180.7 130.9 180.7 130.9Z" fill="white" stroke="#263238" stroke-miterlimit="10" stroke-linecap="round" stroke-linejoin="round"/>
<path d="M180.7 123.9C180.7 123.9 184.8 124.7 186.4 128.5C188.1 132.2 192.5 143.7 192.5 143.7L186.9 144.4L192.8 148.6L182.3 187.9L181.1 145.3L180.1 127.7C180.2 127.8 179 125 180.7 123.9Z" fill="white" stroke="#263238" stroke-miterlimit="10" stroke-linecap="round" stroke-linejoin="round"/>
<path d="M168.4 115.8C168.4 115.8 169.1 120.7 168.1 123.4C167.1 126.1 171.3 134.5 173 139.8C174.7 145 176.4 149.3 177.4 148.8C178.4 148.3 182 128.5 181.8 126C181.6 123.5 183.3 115.9 183.3 115.9C183.3 115.9 174 118.5 168.4 115.8Z" fill="white" stroke="#263238" stroke-miterlimit="10" stroke-linecap="round" stroke-linejoin="round"/>
<path d="M156.5 110.7C161.802 110.7 166.1 106.178 166.1 100.6C166.1 95.0219 161.802 90.5 156.5 90.5C151.198 90.5 146.9 95.0219 146.9 100.6C146.9 106.178 151.198 110.7 156.5 110.7Z" fill="#263238" stroke="#263238" stroke-miterlimit="10" stroke-linecap="round" stroke-linejoin="round"/>
<path d="M161.5 105.3C161.5 105.3 159.8 100.9 157.8 102.6C155.8 104.3 157.8 108 159.3 110.2C160.8 112.4 163.7 111.4 163.4 109.2C163 107 161.5 105.3 161.5 105.3Z" fill="white" stroke="#263238" stroke-miterlimit="10" stroke-linecap="round" stroke-linejoin="round"/>
<path d="M187.6 102.6C187.6 102.6 188.4 98.3999 189.6 101.2C190.8 104.1 190.3 106.6 189.3 108.3C188.3 110 188.5 109.8 188.1 108.3C187.8 106.8 187.6 102.6 187.6 102.6Z" fill="white" stroke="#263238" stroke-miterlimit="10" stroke-linecap="round" stroke-linejoin="round"/>
<path d="M159.1 97.1999C159.1 97.1999 162.3 112.7 164.3 116.5C166.3 120.2 173.1 126.5 179.2 123.9C185.3 121.4 188.7 116.6 188.7 110.9C188.7 105.2 189.5 97.8999 188.5 91.5999C187.5 85.3999 181.9 81.2999 176.5 81.0999C171.1 80.8999 162.7 83.9999 161 89.3999C159.3 94.8999 159.1 97.1999 159.1 97.1999Z" fill="white" stroke="#263238" stroke-miterlimit="10" stroke-linecap="round" stroke-linejoin="round"/>
<path d="M159.3 103C159.3 103 168.8 99.2999 174.8 94.6999C180.9 90.0999 182.7 86.7999 182.7 86.7999C182.7 86.7999 185.6 94.5999 186.8 97.0999C188 99.5999 189 102.5 189 102.5C189 102.5 190.9 99.2999 190.9 92.4999C190.9 85.6999 189 80.2999 181.9 76.7999C174.8 73.2999 163.2 75.3999 157.9 80.4999C152.7 85.5999 153.7 93.7999 155 96.9999C156.4 100.3 159.3 103 159.3 103Z" fill="#263238" stroke="#263238" stroke-miterlimit="10" stroke-linecap="round" stroke-linejoin="round"/>
<path d="M180.2 96.7C180.2 96.7 179.2 96.9 179.2 99.9C179.2 102.9 180.2 108 180 108.7C179.8 109.4 178 111.4 176.8 110.2" stroke="#263238" stroke-miterlimit="10" stroke-linecap="round" stroke-linejoin="round"/>
<path d="M172.6 113.3C172.6 113.3 177 115.2 182.6 111.8" stroke="#263238" stroke-miterlimit="10" stroke-linecap="round" stroke-linejoin="round"/>
<path d="M180.9 96.3999C180.9 96.3999 184.5 94.9999 186.8 97.0999" stroke="#263238" stroke-miterlimit="10" stroke-linecap="round" stroke-linejoin="round"/>
<path d="M175 97C175 97 170.4 95.2999 165.9 98.6999" stroke="#263238" stroke-miterlimit="10" stroke-linecap="round" stroke-linejoin="round"/>
<path d="M172.6 101.9C172.6 102.9 172.2 103.8 171.7 103.8C171.2 103.8 170.8 103 170.8 101.9C170.8 100.9 171.2 100 171.7 100C172.2 100.1 172.6 100.9 172.6 101.9Z" fill="#263238"/>
<path d="M183.6 101.3C183.6 102.3 183.2 103.2 182.7 103.2C182.2 103.2 181.8 102.4 181.8 101.3C181.8 100.2 182.2 99.3999 182.7 99.3999C183.2 99.3999 183.6 100.2 183.6 101.3Z" fill="#263238"/>
<path d="M194.4 169.7C194.4 169.7 192.2 166.2 191.4 164.8C190.6 163.4 186.7 164 184.8 164C182.9 164 180.7 165.7 180.1 167C179.4 168.4 176.4 170.5 177.6 171.9C178.8 173.3 182 172.4 182.5 172.7C183 173 187.2 175.9 188.7 176.4C190.2 176.9 191.2 176.7 191.2 176.7L194.4 169.7Z" stroke="#263238" stroke-miterlimit="10" stroke-linecap="round" stroke-linejoin="round"/>
<path d="M199 137.4C199 137.4 204.4 139.6 206.3 145.5C208.2 151.4 214.4 190.8 213.1 194.5C211.7 198.2 208.4 201.1 202.5 199.1C196.6 197.1 187.5 187.4 187.5 187.4L194.6 169.7L200.2 172.6L199 156.7" fill="white"/>
<path d="M199 137.4C199 137.4 204.4 139.6 206.3 145.5C208.2 151.4 214.4 190.8 213.1 194.5C211.7 198.2 208.4 201.1 202.5 199.1C196.6 197.1 187.5 187.4 187.5 187.4L194.6 169.7L200.2 172.6L199 156.7" stroke="#263238" stroke-miterlimit="10" stroke-linecap="round" stroke-linejoin="round"/>
<path d="M200 172.6C200 172.6 209 177.8 209.8 179.7" stroke="#263238" stroke-miterlimit="10" stroke-linecap="round" stroke-linejoin="round"/>
<path d="M188.7 148.9H156.1V194.5H188.7V148.9Z" fill="#263238" stroke="#263238" stroke-miterlimit="10" stroke-linecap="round" stroke-linejoin="round"/>
<path d="M170.8 180.7C170.8 180.7 177 177.3 178.9 175.5C180.8 173.6 181.1 173.5 182.1 173.5C183.1 173.5 188.5 173.3 189.5 173C190.5 172.7 190 175 189.5 175.5C189 176 185.8 176.7 185.8 176.7C185.8 176.7 191.2 176.2 191.4 177.9C191.6 179.6 191.1 180.1 190.6 180.6C190 181 190 181 190 181C190 181 190.5 184.5 190 186.2C189.5 187.9 188.5 188.4 186.3 188.7C184.1 189 179.2 188.5 177.5 188.2C175.8 187.9 170.1 189 170.1 189L170.8 180.7Z" fill="white" stroke="#263238" stroke-miterlimit="10" stroke-linecap="round" stroke-linejoin="round"/>
<path d="M148.3 136.1C148.3 136.1 138.3 138.3 136.6 139.3C134.9 140.3 129.3 180.5 128.2 187.3C127 194.1 138.7 195.4 142.2 196.8C145.7 198.2 171.6 200.2 171.6 200.2L171.9 179.3L154 174.7L153.8 145.8" fill="white"/>
<path d="M148.3 136.1C148.3 136.1 138.3 138.3 136.6 139.3C134.9 140.3 129.3 180.5 128.2 187.3C127 194.1 138.7 195.4 142.2 196.8C145.7 198.2 171.6 200.2 171.6 200.2L171.9 179.3L154 174.7L153.8 145.8" stroke="#263238" stroke-miterlimit="10" stroke-linecap="round" stroke-linejoin="round"/>
<path d="M154 174.6C154 174.6 147.8 171.7 143.7 173.2C139.6 174.7 136.3 182.5 136.3 182.5" stroke="#263238" stroke-miterlimit="10" stroke-linecap="round" stroke-linejoin="round"/>
<path d="M147.1 172.6C147.1 172.6 141.2 172.3 138.3 173.4C135.4 174.5 133.7 176.8 133.7 176.8" stroke="#263238" stroke-miterlimit="10" stroke-linecap="round" stroke-linejoin="round"/>
<path d="M179.2 147.4H167.7V151.1H179.2V147.4Z" fill="white" stroke="#263238" stroke-miterlimit="10" stroke-linecap="round" stroke-linejoin="round"/>
</g>
<defs>
<clipPath id="clip0">
<rect width="424.8" height="384.2" fill="white"/>
</clipPath>
</defs>
</svg>
