<svg width="26" height="30" viewBox="0 0 26 30" fill="none" xmlns="http://www.w3.org/2000/svg">
<path d="M7.22286 28.4888L7.72848 25.1854L6.58241 25.1517H1.05432L4.89702 0.780894C4.93072 0.612355 5.06556 0.51123 5.20039 0.51123H14.5375C17.6386 0.51123 19.7622 1.15168 20.8745 2.43258C21.4139 3.03932 21.7172 3.64606 21.8858 4.35393C22.0543 5.06179 22.0543 5.9382 21.8858 6.98314V7.05056V7.72471L22.4251 8.02808C22.8296 8.23033 23.1667 8.49999 23.47 8.83707C23.9083 9.34269 24.2116 9.98314 24.3127 10.7584C24.4476 11.5337 24.4139 12.4775 24.1779 13.5562C23.942 14.7697 23.5375 15.8483 23.0318 16.7247C22.5599 17.5 21.9532 18.1742 21.2116 18.7135C20.5038 19.2191 19.6948 19.5899 18.7847 19.8258C17.8745 20.0618 16.8633 20.1629 15.7172 20.1629H14.9757C14.47 20.1629 13.9644 20.3652 13.5599 20.6685C13.1554 21.0056 12.9195 21.4775 12.8184 21.9831L12.7509 22.2865L11.9083 28.118L11.8745 28.3202C11.8745 28.3876 11.8408 28.4213 11.8071 28.455C11.7734 28.4888 11.7397 28.4888 11.706 28.4888H7.22286Z" fill="#253B80"/>
<path d="M22.897 7.11792C22.8633 7.28646 22.8296 7.48871 22.7959 7.65725C21.5824 13.9606 17.3689 16.1516 11.9757 16.1516H9.24533C8.60489 16.1516 8.03185 16.6235 7.93073 17.264L6.54871 26.1629L6.14421 28.6909C6.0768 29.0617 6.34646 29.4325 6.71725 29.4999C6.75095 29.4999 6.78466 29.4999 6.81837 29.4999H11.6723C12.2453 29.4999 12.751 29.0954 12.8184 28.5224L12.8521 28.2865L13.7622 22.4887L13.8296 22.1853C13.9307 21.6123 14.4026 21.2078 14.9757 21.2078H15.7172C20.4026 21.2078 24.1105 19.2865 25.1892 13.7921C25.6274 11.4999 25.3914 9.54488 24.2116 8.19657C23.8745 7.72466 23.4026 7.38758 22.897 7.11792Z" fill="#179BD7"/>
<path d="M21.6161 6.61239C21.2116 6.51127 20.8408 6.41015 20.4363 6.34273C19.6273 6.2079 18.8183 6.17419 18.0094 6.17419H10.7285C10.1554 6.17419 9.64981 6.57869 9.58239 7.15172L7.99812 16.9944L7.96442 17.2978C8.06554 16.6573 8.63857 16.1854 9.27902 16.1854H12.0094C17.3689 16.1854 21.5824 13.9944 22.8296 7.69105C22.8633 7.4888 22.897 7.32026 22.9307 7.15172C22.5936 6.98318 22.2565 6.84835 21.9195 6.71352C21.8183 6.6461 21.7172 6.6461 21.6161 6.61239Z" fill="#222D65"/>
<path d="M9.5487 8.15169C9.64983 7.57865 10.1217 7.17416 10.6948 7.17416H18.0094C18.8858 7.17416 19.6948 7.24157 20.4363 7.3427C20.942 7.41011 21.4139 7.54494 21.9195 7.67978C22.2903 7.81461 22.6274 7.94944 22.9307 8.11798C23.3015 5.79213 22.9307 4.20787 21.6498 2.75843C20.2678 1.17416 17.7397 0.5 14.5375 0.5H5.20039C4.55994 0.5 3.98691 0.971911 3.88578 1.61236L0.0093785 26.2191C-0.0580372 26.6573 0.245334 27.0618 0.683536 27.1292C0.717244 27.1292 0.750951 27.1292 0.818367 27.1292H6.5487L7.99814 17.9607C7.99814 17.9944 9.5487 8.15169 9.5487 8.15169Z" fill="#253B80"/>
</svg>
