<svg id="Layer_1" data-name="Layer 1" xmlns="http://www.w3.org/2000/svg" viewBox="0 0 2000.16 576"><defs><style>.cls-1{fill:#204f46;}.cls-2{fill:#fff;}</style></defs><title>Outpost_Logo_TM_Transparent</title><path class="cls-1" d="M1363.58,319V237.64h11.91v80.23c0,9.88,6,14.24,13.09,14.24,8.72,0,12.79-6,12.49-14.1V237.64h11.35v80.52c.14,15.26-9.89,24.56-24.72,24.56-14.09,0-24.12-7.55-24.12-23.69"/><polygon class="cls-1" points="1465.31 247.81 1445.54 247.81 1445.54 237.64 1496.99 237.64 1496.99 247.81 1477.22 247.81 1477.22 341.27 1465.31 341.27 1465.31 247.81"/><path class="cls-1" d="M1696.38,316.85l11.33-.43c.87,9.45,4.21,16.56,12.5,16.56,8.57,0,11.33-7.55,11.33-14.53,0-6.54-3.34-13.37-9-19.62L1710.33,285c-7.57-8-12.36-16.28-12.36-25.73,0-12.93,7.55-23.25,22.52-23.25,11.49,0,20.5,6.1,21.52,24.27l-10.75.29c-1.17-10-4.51-14.82-11.49-14.82-6.68,0-10.61,4.21-10.61,12.5,0,6.54,4.8,12.49,10.18,18.61l10.75,12.2c8.29,9,12.79,17.74,12.79,28.64,0,14.53-8.14,25-22.82,25-14.1,0-22.68-9.3-23.68-25.87"/><polygon class="cls-1" points="1770.78 237.64 1770.78 247.82 1790.54 247.82 1790.54 341.27 1802.46 341.27 1802.46 247.82 1822.23 247.82 1822.23 237.64 1770.78 237.64"/><path class="cls-1" d="M1146.87,235.23V189l53.52-19.38-16.87,25.21a4.79,4.79,0,0,0,1,6.43l20.62,16Zm71.44-19.88-24.37-18.93,22.5-33.62a4.78,4.78,0,0,0-5.6-7.15l-64,23.17v-2.51a4.78,4.78,0,0,0-9.56,0V354h9.56V245.23l69.92-21.54a4.78,4.78,0,0,0,1.52-8.34"/><path class="cls-1" d="M173.9,340c-18.3,0-32.89-15-33.5-15.61l-.39-.41,8.27-7.95.39.4c.12.12,11.92,12.1,25.23,12.1,5.57,0,10.41-1.71,13.29-4.69a10.85,10.85,0,0,0,3-8.23c-.25-7.57-7.9-10.21-20.46-13.66-11-3-23.45-6.43-25.83-18.05a18.25,18.25,0,0,1,3.79-15.45c4.81-5.89,13.25-9.41,22.58-9.41,14,0,26.66,7.75,27.2,8.08l.47.3-6.06,9.74-.48-.3c-.11-.06-10.48-6.35-21.13-6.35-5.83,0-11.07,2-13.69,5.2a6.68,6.68,0,0,0-1.43,5.89c1,4.72,9,6.94,17.62,9.29,12.62,3.46,28.34,7.78,28.89,24.34a22.24,22.24,0,0,1-6.19,16.59c-5.1,5.28-12.75,8.18-21.54,8.18"/><path class="cls-1" d="M406.77,293.71a28.79,28.79,0,0,0-7.52-15.94,23.65,23.65,0,0,0-17.47-7.28c-12.89,0-23.38,9.51-25.71,23.22Zm-23.09,46.65c-1.15,0-2.33,0-3.5-.12-21.1-1.44-36.41-18.54-36.41-40.65,0-22.95,16.69-40.92,38-40.92a35.25,35.25,0,0,1,26,10.9,41.45,41.45,0,0,1,11.1,30.27l-.21,5.69H356.06A26.86,26.86,0,0,0,381,328.45c.88.06,1.76.09,2.63.09A34,34,0,0,0,408,318.48l.4-.39,8.4,8.3-.4.4a45.72,45.72,0,0,1-32.75,13.57"/><path class="cls-1" d="M500.56,293.71A28.72,28.72,0,0,0,493,277.77a23.65,23.65,0,0,0-17.47-7.28c-12.88,0-23.37,9.51-25.71,23.22Zm-23.09,46.65c-1.15,0-2.33,0-3.5-.12-21.1-1.44-36.41-18.54-36.41-40.65,0-22.95,16.69-40.92,38-40.92a35.23,35.23,0,0,1,26,10.9,41.49,41.49,0,0,1,11.11,30.27l-.22,5.69H449.85a26.86,26.86,0,0,0,24.92,22.93c.89.06,1.78.1,2.65.1a34,34,0,0,0,24.4-10.07l.4-.39,8.4,8.3-.4.4a45.72,45.72,0,0,1-32.75,13.57"/><path class="cls-1" d="M569,340.44c-15.7,0-25.07-9-25.07-24.15V273.08H532.6V260.7h11.29v-23h12.37v23h24.22v12.38H556.26v41.59c0,6.49,1.92,10.71,5.71,12.52a16.84,16.84,0,0,0,7.33,1.42A41.68,41.68,0,0,0,579.77,327l.71-.2v11.7l-.39.12A37.06,37.06,0,0,1,569,340.44"/><polygon class="cls-1" points="292.38 338.26 272.94 280.8 253.5 338.26 241.03 338.26 214.76 260.85 227.47 260.85 247.59 319.94 267.22 260.85 278.66 260.85 298.29 319.94 318.41 260.85 331.12 260.85 304.85 338.26 292.38 338.26"/><path class="cls-1" d="M827.34,293.71a28.72,28.72,0,0,0-7.52-15.94,23.65,23.65,0,0,0-17.47-7.28c-12.88,0-23.37,9.51-25.71,23.22Zm-23.09,46.65c-1.15,0-2.33,0-3.5-.12-21.1-1.44-36.41-18.54-36.41-40.65,0-22.95,16.7-40.92,38-40.92a35.23,35.23,0,0,1,26,10.9,41.45,41.45,0,0,1,11.11,30.27l-.22,5.69H776.63a26.86,26.86,0,0,0,24.93,22.93c.88.06,1.77.1,2.64.1a34,34,0,0,0,24.41-10.07l.39-.39,8.4,8.3-.4.4a45.72,45.72,0,0,1-32.75,13.57"/><path class="cls-1" d="M921.14,293.71a28.85,28.85,0,0,0-7.52-15.94,23.67,23.67,0,0,0-17.48-7.28c-12.88,0-23.37,9.51-25.7,23.22Zm-23.09,46.65c-1.15,0-2.33,0-3.51-.12-21.09-1.44-36.41-18.54-36.41-40.65,0-22.95,16.7-40.92,38-40.92a35.23,35.23,0,0,1,26,10.9,41.41,41.41,0,0,1,11.11,30.27l-.21,5.69H870.43a26.85,26.85,0,0,0,24.92,22.93c.89.07,1.79.1,2.67.1a34,34,0,0,0,24.38-10.07l.39-.4,8.4,8.31-.39.4a45.76,45.76,0,0,1-32.75,13.57"/><path class="cls-1" d="M709.29,338.26V260.85H721.1v17.37c6.12-11.8,17.36-19,29.87-19l1.4,0,.54,0v13.33h-1.46c-19.92,0-30.35,19.73-30.35,39.22v26.46Z"/><path class="cls-1" d="M1013.22,338.26V293c0-14.06-7.67-22.46-20.53-22.46-14.79,0-23.93,14.22-23.93,27.4v40.33H956.27V260.85h12.49v11.79c6-8.76,15.31-13.56,26.38-13.56,18.57,0,30.57,12.21,30.57,31.1v48.08Z"/><path class="cls-1" d="M686.78,268.83l-9.31-9.21a27.14,27.14,0,0,0-9.88,12.81c-2.42-2.65-13.5-13.76-31-13.76-20.43,0-37,17.15-37,37.57s16.18,37,37.79,37c19,0,28.54-11.9,28.54-11.9v1.2c0,8.73-2.32,15.53-6.88,20.22-4.93,5.05-11.37,7.4-20.24,7.4-15.72,0-24.1-7.42-26.43-8.81L605.48,351c2.08,1.12,13.14,11,33.28,11,12.1,0,21.49-3.59,28.69-11,6.7-6.88,10.24-16.73,10.24-28.47l.18-34.35C677.87,279.16,681.06,272.45,686.78,268.83ZM639,321.91c-14.7,0-26.66-11.54-26.66-25.72s12-25.72,26.66-25.72,26.66,11.54,26.66,25.72S653.69,321.91,639,321.91Z"/><path class="cls-1" d="M1314.9,318.16V259.44c0-7.71-4.94-12.94-13.52-12.94s-12.93,6-12.93,13.38v58.28c0,7.56,4.36,13.81,13.22,13.81,9.16,0,13.23-6.39,13.23-13.81m-38.66-.15V260.6c0-16,10.9-24.56,25.57-24.56,14.1,0,25,7.41,25,23.4v58c0,16.86-10.91,25.28-25.44,25.28-15.11,0-25.14-8.14-25.14-24.71"/><path class="cls-1" d="M1551.34,289.38c9.59,0,14-7.55,14-21.51,0-11.62-3.34-19.91-13.22-19.91h-9.6v41.42Zm-20.93-51.74h23.25c16.73,0,23.41,12.21,23.41,30.08,0,19.19-7.71,31.69-24.42,31.69h-10.18v41.86h-12.06Z"/><path class="cls-1" d="M1650.6,318.16V259.44c0-7.71-4.94-12.94-13.52-12.94s-12.93,6-12.93,13.38v58.28c0,7.56,4.35,13.81,13.22,13.81,9.16,0,13.23-6.39,13.23-13.81m-38.66-.15V260.6c0-16,10.9-24.56,25.58-24.56,14.09,0,25,7.41,25,23.4v58c0,16.86-10.9,25.28-25.43,25.28-15.11,0-25.14-8.14-25.14-24.71"/><path class="cls-1" d="M1844,233.32v-8.66h-3.29v-1.5h8.3v1.5h-3.32v8.66Zm6.14,0V223.16h2.5l2.56,8.11,2.49-8.11h2.44v10.16h-1.55v-8.53l-2.61,8.53h-1.54l-2.73-8.66v8.66Z"/><path class="cls-2" d="M-1515.21-1384.34a6441.15,6441.15,0,0,1,151,1983.88q-22.71,285.3-71,567.7c-.62,3.64,1.55,7.68,5.74,7.54,489-16.59,978.22-14,1467.37-12.71,488.94,1.26,978.12,1,1466.64-21.85,244-11.41,487.46-36.55,731.58-43,245-6.41,482.48,26.3,720,84.73,231.08,56.83,459.41,124.16,690.7,180.31Q3996,1447,4349.13,1513.79c111.19,21,223.2,44.84,335.58,58.48,75.87,9.21,154.65,1,204.72-62.76,79.14-100.81,54.4-247.08,129.1-348.72,19.29-26.24,45.49-42.42,77.27-49,4.15-.86,5-5.49,3.56-8.75a7594.07,7594.07,0,0,1-506-1688.28,7537.82,7537.82,0,0,1-102.42-875.94c-4.12-71.28-4-143.17-9.69-214.3-4-49.48-23.76-81.59-74.9-88.8-147.73-20.81-299.93-25.59-448.76-35-618.73-39.3-1241.19-39.65-1857.81,30.18-306.58,34.71-611.27,84.38-918,118.11-307.43,33.8-616.33,46-925.43,50.72-307.17,4.69-614.44,3-921.53,12.12-155.45,4.61-310.84,12-465.87,24.37q-113.06,9-225.76,21.86c-49.44,5.68-113.48,7-148,48.76-23,27.86-26.74,68.82-.53,95.39,5.39,5.46,13.81-3,8.42-8.42-34.69-35.15-4.27-84.38,32.47-102.07,33-15.89,71.88-17.64,107.66-21.75q109.45-12.59,219.3-21.34c148.56-12,297.45-19.38,446.41-24.1,298.41-9.46,597-8.27,895.52-12.18,296.11-3.87,592.41-13,887.25-42,294.21-29,586.28-75.5,879.55-112.17,596.35-74.57,1197.26-86.41,1797.13-56.31q221.9,11.15,443.4,29,55.35,4.43,110.67,9.2c39.09,3.37,103.16-3.08,129.92,29.93,20.93,25.82,17.61,65.92,18.7,97.15q1.81,52.16,4.37,104.28a7561.53,7561.53,0,0,0,87,831.52A7584.8,7584.8,0,0,0,5012.82,926.34q36.93,91.85,76.25,182.71l3.56-8.75c-121.23,25.13-131.52,179.22-157.59,276.46-17.17,64.06-42.69,135.35-105.33,168C4777.43,1572,4715,1565.28,4659,1556.67c-58.21-8.93-116.22-19.6-174.19-30-469.37-84-929.93-198.65-1390.38-321.4-225.76-60.19-454.16-111.75-688.52-119.65-244.07-8.23-487.91,19.63-731.26,33.77-486,28.24-973,31.69-1459.74,31.11-487-.59-974.06-5.19-1460.95,6.94q-91.68,2.3-183.32,5.41l5.74,7.54A6455.67,6455.67,0,0,0-1397.94-830q-40.47-281-105.79-557.47c-1.75-7.46-13.23-4.3-11.48,3.16Z"/></svg>