<svg width="188" height="168" viewBox="0 0 188 168" fill="none" xmlns="http://www.w3.org/2000/svg">
<path d="M15.0433 104.774H14.9923L10.9128 126.09H5.30341L0 100.083H4.48751L8.1591 120.124H8.2101L12.1367 100.083H17.95L21.8256 120.124H21.8766L25.7012 100.083H30.0357L24.6813 126.09H18.9699L15.0433 104.774Z" fill="#009CDE"/>
<path d="M36.767 106.559C40.6935 106.559 45.181 108.599 45.181 116.401C45.181 124.458 40.6935 126.294 36.767 126.294C32.8404 126.294 28.3019 124.407 28.3019 116.401C28.3529 108.599 32.8914 106.559 36.767 106.559ZM36.767 123.082C39.7246 123.082 40.4385 119.665 40.4385 116.452C40.4385 113.24 39.7756 109.874 36.767 109.874C33.7583 109.874 33.0953 113.24 33.0953 116.452C33.0953 119.665 33.8093 123.082 36.767 123.082Z" fill="#009CDE"/>
<path d="M47.4758 110.027C47.4758 108.956 47.4248 107.936 47.3228 106.865H51.5044C51.5554 108.038 51.6573 109.211 51.6573 110.384H51.7083C52.2693 108.905 53.6971 106.61 56.6038 106.61C56.8588 106.61 57.1137 106.661 57.3687 106.712V111.047C56.9608 110.945 56.5018 110.843 56.0939 110.843C54.2071 110.843 52.1163 112.016 52.1163 115.585V126.09H47.5268L47.4758 110.027Z" fill="#009CDE"/>
<path d="M59.3575 98.1453H63.998V126.039H59.3575V98.1453Z" fill="#009CDE"/>
<path d="M82.8149 98.1453V122.776C82.8149 123.846 82.8659 124.968 82.9679 126.039H78.6333C78.5314 125.07 78.4804 124.05 78.4804 123.082H78.3784C77.6135 124.713 76.2366 126.345 73.2789 126.345C68.5365 126.345 66.5477 121.807 66.5477 116.503C66.5477 110.231 69.0464 106.61 73.1769 106.61C75.3187 106.508 77.2565 107.732 78.1234 109.67H78.1744V98.1453H82.8149ZM74.5028 122.929C77.2055 122.929 78.1234 119.971 78.1234 116.401C78.1234 112.679 77.1035 109.976 74.5538 109.976C72.0041 109.976 71.0862 112.475 71.0862 116.299C71.1372 120.736 71.8511 122.929 74.5028 122.929Z" fill="#009CDE"/>
<path d="M96.5323 100.083H101.326V110.639H109.026V100.083H113.768V126.09H109.026V114.565H101.326V126.039H96.5323V100.083Z" fill="#009CDE"/>
<path d="M130.648 125.121C128.863 125.937 126.874 126.345 124.936 126.345C118.766 126.345 116.063 121.909 116.063 116.758C116.063 111.047 119.072 106.61 123.967 106.61C128.098 106.61 131.617 109.007 131.617 116.86V117.778H120.551C120.551 121.042 121.877 123.031 125.446 123.031C128.251 123.031 129.628 122.164 130.495 121.552L130.648 125.121ZM127.129 114.82C127.129 111.455 126.007 109.721 123.916 109.721C121.469 109.721 120.5 112.271 120.5 114.82H127.129Z" fill="#009CDE"/>
<path d="M134.574 107.987C136.461 107.069 138.552 106.559 140.643 106.559C146.609 106.559 147.986 109.466 147.986 114.259V122.623C147.986 123.744 148.088 124.866 148.241 125.988H144.059C143.855 125.121 143.753 124.254 143.804 123.387H143.753C142.58 124.968 141.152 126.294 138.399 126.294C135.441 126.294 132.687 124.254 132.687 120.685C132.687 115.483 136.92 114.157 142.784 114.157H143.702V113.444C143.702 111.557 142.784 109.772 140.133 109.772C138.246 109.823 136.41 110.486 134.88 111.659L134.574 107.987ZM143.651 116.656H143.243C139.317 116.656 136.971 117.472 136.971 120.277C136.869 121.807 138.042 123.133 139.572 123.234C139.674 123.234 139.827 123.234 139.929 123.234C142.682 123.234 143.702 121.195 143.702 117.778V116.656H143.651Z" fill="#009CDE"/>
<path d="M152.218 98.1453H156.808V126.039H152.218V98.1453Z" fill="#009CDE"/>
<path d="M162.111 102.939L166.701 101.511V106.865H170.525V110.231H166.701V120.226C166.701 122.266 167.466 122.878 168.791 122.878C169.403 122.878 170.015 122.725 170.525 122.47V125.733C169.556 126.141 168.485 126.345 167.415 126.345C163.998 126.345 162.06 124.764 162.06 120.736V110.282H159V106.916H162.06V102.939H162.111Z" fill="#009CDE"/>
<path d="M172.004 98.1453H176.594V109.364H176.696C177.511 108.191 178.582 106.61 181.438 106.61C185.773 106.61 187.098 109.823 187.098 113.699V126.039H182.509V114.565C182.509 111.608 181.744 110.384 179.857 110.384C177.461 110.384 176.594 112.424 176.594 114.871V126.039H172.004V98.1453Z" fill="#009CDE"/>
<path d="M10.5558 132.975C15.9612 132.975 20.9077 137.003 20.9077 146.335C20.9077 155.667 15.9612 159.696 10.5558 159.696C5.15044 159.696 0.203979 155.667 0.203979 146.335C0.203979 137.003 5.15044 132.975 10.5558 132.975ZM10.5558 156.075C13.5645 156.075 16.0122 153.525 16.0122 146.335C16.0122 139.145 13.5645 136.646 10.5558 136.646C7.54717 136.646 5.09944 139.196 5.09944 146.335C5.09944 153.474 7.54717 156.075 10.5558 156.075Z" fill="#009CDE"/>
<path d="M22.8455 143.326C22.8455 142.255 22.7945 141.236 22.6925 140.165H26.8741C26.925 141.338 27.027 142.51 27.027 143.683H27.078C27.639 142.204 29.1178 139.91 31.9735 139.91C32.2285 139.91 32.4834 139.961 32.7384 140.012V144.346C32.3305 144.244 31.8715 144.142 31.4125 144.142C29.5258 144.142 27.435 145.315 27.435 148.885V159.39H22.8455V143.326Z" fill="#009CDE"/>
<path d="M34.9821 162.347C36.7159 163.367 38.6537 163.928 40.6425 163.979C44.977 163.979 45.691 160.97 45.691 157.962V156.126H45.64C44.875 157.605 43.6002 159.39 40.5915 159.39C37.9398 159.39 33.9113 157.605 33.9113 149.854C33.9113 144.55 35.7981 139.91 40.8465 139.91C43.6512 139.91 44.926 141.49 45.8949 143.173H46.0479C46.0479 142.153 46.1499 141.185 46.2009 140.216H50.3824C50.3314 141.236 50.2295 142.204 50.2295 143.224V157.35C50.2295 163.367 48.3937 167.6 41.3564 167.6C39.1127 167.6 36.8689 167.192 34.7782 166.427L34.9821 162.347ZM41.6624 155.973C44.5691 155.973 45.742 153.882 45.742 149.548C45.742 145.519 44.2121 143.377 42.0194 143.428C39.5716 143.479 38.6537 145.723 38.6537 149.599C38.6537 154.086 40.0816 155.973 41.6624 155.973Z" fill="#009CDE"/>
<path d="M54.309 141.287C56.1958 140.318 58.2866 139.859 60.3774 139.859C66.3437 139.859 67.7206 142.766 67.7206 147.559V155.922C67.7206 157.044 67.8225 158.166 67.9755 159.288H63.794C63.59 158.421 63.488 157.554 63.539 156.687H63.488C62.3152 158.268 60.8873 159.594 58.1336 159.594C55.1759 159.594 52.4222 157.554 52.4222 153.984C52.4222 148.783 56.6548 147.457 62.5191 147.457H63.437V146.743C63.437 144.856 62.5191 143.072 59.8674 143.072C57.9806 143.123 56.1448 143.785 54.615 144.958L54.309 141.287ZM63.386 149.956H62.9781C59.0515 149.956 56.7058 150.772 56.7058 153.576C56.6038 155.106 57.7767 156.432 59.3065 156.534C59.4085 156.534 59.5105 156.534 59.6635 156.534C62.4171 156.534 63.437 154.494 63.437 151.078L63.386 149.956Z" fill="#009CDE"/>
<path d="M71.4432 143.326C71.4432 142.255 71.3921 141.236 71.2902 140.165H75.6247C75.6757 141.134 75.7777 142.153 75.7777 143.122H75.8287C76.4916 141.949 77.8175 139.91 80.9281 139.91C85.2626 139.91 86.5885 143.122 86.5885 146.998V159.339H81.948V147.814C81.948 144.856 81.1831 143.632 79.2963 143.632C76.8996 143.632 76.0326 145.672 76.0326 148.12V159.288H71.4432V143.326Z" fill="#009CDE"/>
<path d="M90.1071 132.006H94.9006V136.544H90.1071V132.006ZM90.2091 140.165H94.7986V159.339H90.2091V140.165Z" fill="#009CDE"/>
<path d="M98.4192 155.361L106.629 143.683H98.6741V140.165H111.219V144.091L103.162 155.82H111.474V159.338H98.3682V155.361H98.4192Z" fill="#009CDE"/>
<path d="M114.992 141.287C116.879 140.318 118.97 139.859 121.061 139.859C127.027 139.859 128.404 142.766 128.404 147.559V155.922C128.404 157.044 128.506 158.166 128.659 159.288H124.477C124.273 158.421 124.171 157.554 124.222 156.687H124.171C122.999 158.268 121.571 159.594 118.817 159.594C115.859 159.594 113.106 157.554 113.106 153.984C113.106 148.783 117.338 147.457 123.202 147.457H124.12V146.743C124.12 144.856 123.202 143.072 120.551 143.072C118.664 143.123 116.828 143.785 115.298 144.958L114.992 141.287ZM124.069 149.956H123.661C119.735 149.956 117.389 150.772 117.389 153.576C117.287 155.106 118.46 156.432 119.99 156.534C120.092 156.534 120.194 156.534 120.347 156.534C123.1 156.534 124.12 154.494 124.12 151.078V149.956H124.069Z" fill="#009CDE"/>
<path d="M133.401 136.238L137.991 134.81V140.165H141.815V143.53H137.991V153.474C137.991 155.514 138.756 156.126 140.082 156.126C140.694 156.126 141.305 156.024 141.815 155.718V158.982C140.846 159.441 139.776 159.645 138.705 159.594C135.288 159.594 133.35 158.013 133.35 154.035V143.53H130.291V140.165H133.35L133.401 136.238Z" fill="#009CDE"/>
<path d="M144.62 132.006H149.363V136.544H144.62V132.006ZM144.722 140.165H149.363V159.339H144.773L144.722 140.165Z" fill="#009CDE"/>
<path d="M160.326 139.859C164.253 139.859 168.74 141.899 168.74 149.701C168.74 157.758 164.253 159.594 160.326 159.594C156.4 159.594 151.861 157.758 151.861 149.701C151.912 141.95 156.451 139.859 160.326 139.859ZM160.326 156.381C163.284 156.381 163.998 152.964 163.998 149.752C163.998 146.539 163.335 143.174 160.326 143.174C157.318 143.174 156.655 146.539 156.655 149.752C156.655 152.964 157.369 156.381 160.326 156.381Z" fill="#009CDE"/>
<path d="M172.412 143.326C172.412 142.255 172.361 141.236 172.259 140.165H176.594C176.645 141.134 176.747 142.153 176.747 143.122H176.798C177.46 141.949 178.786 139.91 181.897 139.91C186.232 139.91 187.557 143.122 187.557 146.998V159.339H182.968V147.814C182.968 144.856 182.203 143.632 180.316 143.632C177.919 143.632 177.053 145.672 177.053 148.12V159.288H172.463L172.412 143.326Z" fill="#009CDE"/>
<path d="M126.6 16.828C128.588 19.2247 132.056 20.6016 134.096 22.9983C132.617 15.9611 127.212 10.1987 120.786 8.82189C123.948 11.1676 124.611 14.4313 126.6 16.828ZM49.4962 34.676C53.9327 25.0381 60.511 27.0779 63.3157 17.9499C61.6838 20.7036 54.4936 21.8764 51.179 29.0667C52.9128 24.7831 52.0459 18.2558 54.9016 14.6862C46.2835 21.1115 49.9551 31.4124 49.4962 34.676ZM57.4513 57.7255C58.2672 61.4481 55.9215 66.9045 59.6441 72.0549C55.8195 67.7714 47.6604 66.6495 44.3457 60.1222C48.4763 76.0835 59.2871 72.8198 64.1316 76.2875C60.154 70.5251 63.4176 66.7005 57.4513 57.7255ZM56.2274 67.7714C53.8307 58.8474 58.0632 55.7367 54.8506 47.1697C54.5446 52.0141 51.281 54.3599 53.4737 63.1819C49.6492 55.6857 43.7338 52.881 42 47.7816C42.102 61.8051 53.3717 63.8958 56.2274 67.7714ZM73.5145 82.7128C70.1999 78.1233 72.4437 75.5225 63.1627 67.2105C65.1515 70.2701 63.1117 74.0947 69.384 80.0101C63.2647 76.3894 54.7486 77.9193 50.669 73.0748C57.7063 86.5373 70.0469 81.0299 73.5145 82.7128ZM118.645 80.0101C124.917 74.0437 122.877 70.2191 124.866 67.2105C115.534 75.5225 117.829 78.1233 114.463 82.7128C117.982 81.0299 130.322 86.5373 137.309 73.0748C133.28 77.9703 124.764 76.3894 118.645 80.0101ZM128.384 72.0549C132.107 66.9045 129.761 61.4991 130.526 57.7255C124.56 66.7005 127.824 70.5251 123.846 76.2875C128.741 72.8198 139.501 76.0835 143.632 60.1222C140.317 66.6495 132.209 67.7714 128.384 72.0549ZM113.494 83.3757C110.179 82.5088 106.763 81.9478 103.295 81.8459C100.134 81.7949 96.972 82.3048 94.0143 83.4267C91.0566 82.3048 87.895 81.7949 84.7333 81.8459C81.2657 81.9478 77.8491 82.5088 74.5344 83.3757C68.925 84.8545 64.0806 86.0274 59.848 83.8856C63.8766 87.4552 68.6191 88.7811 75.4523 88.0162C81.1127 87.4042 85.7022 84.5486 91.0566 84.5995H91.2606C87.895 86.2824 84.8863 88.6281 82.4386 91.4838L85.0393 91.8408C85.0393 91.8408 87.742 86.3844 94.0143 84.9565C100.287 86.3844 102.989 91.8408 102.989 91.8408L105.59 91.4838C103.142 88.6281 100.134 86.2824 96.768 84.5995H96.972C102.326 84.5486 106.916 87.4042 112.576 88.0162C119.409 88.7301 124.101 87.4552 128.181 83.8856C123.948 86.0274 119.104 84.8545 113.494 83.3757ZM55.2585 37.4807C52.9638 41.9172 49.3432 42.9371 49.7511 52.0651C47.8134 43.957 43.1729 40.8974 43.2239 35.7469C40.0112 49.3114 48.5783 50.8923 50.822 56.6036C50.4651 48.4445 55.6665 46.8127 55.2585 37.4807ZM58.4712 27.0269C57.6553 28.1488 57.0943 28.6587 54.9526 30.3925C51.7399 32.9422 49.4962 36.5628 48.7313 40.5914C48.9352 35.5939 45.8756 28.4547 47.9153 23.2533C40.0112 34.4211 48.3743 41.1013 48.6803 45.1809C50.669 37.3787 55.4115 37.3278 58.4712 27.0269ZM139.297 40.5914C138.481 36.5628 136.289 32.9422 133.076 30.3925C130.934 28.6077 130.373 28.1488 129.557 27.0269C132.617 37.3278 137.36 37.3787 139.399 45.1809C139.705 41.1523 148.068 34.4721 140.164 23.2533C142.204 28.4547 139.144 35.5939 139.297 40.5914ZM146.029 47.7816C144.295 52.932 138.379 55.6857 134.555 63.1819C136.748 54.3599 133.484 52.0141 133.178 47.1697C129.965 55.7367 134.198 58.8474 131.801 67.7714C134.657 63.8958 145.927 61.8051 146.029 47.7816ZM132.77 37.4807C132.311 46.8127 137.563 48.4445 137.207 56.6036C139.399 50.9433 148.017 49.3114 144.805 35.7469C144.856 40.9484 140.215 43.957 138.277 52.1161C138.685 42.8861 135.116 41.9172 132.77 37.4807ZM61.4289 16.828C63.4176 14.4313 64.0806 11.1676 67.2422 8.82189C60.7659 10.1987 55.3605 15.9101 53.8817 22.9473C55.9215 20.5506 59.4401 19.1737 61.4289 16.828ZM124.764 17.8479C127.569 27.0269 134.147 24.9871 138.583 34.5741C138.124 31.3614 141.796 21.0095 133.178 14.6862C136.085 18.2049 135.218 24.7831 136.901 29.0667C133.535 21.8764 126.345 20.7036 124.764 17.8479ZM102.326 23.1003C100.644 22.3864 98.8587 21.9274 97.0739 21.6725C97.0739 22.0804 97.0739 22.4374 97.0739 22.8453C98.7568 23.1003 100.389 23.5593 101.918 24.1712C102.122 23.8142 102.275 23.4573 102.326 23.1003ZM101.001 11.7286L101.357 11.4226L100.695 11.1166L98.9097 11.0656L98.4508 11.3716L97.4309 11.2696V11.5246C98.0938 11.5756 98.7568 11.6266 99.2667 11.7286L100.134 11.6776L101.001 11.7286ZM97.6349 49.7704C97.6349 49.4644 97.2269 49.1584 96.666 48.9035H96.564C96.564 49.1584 96.513 50.3313 96.513 50.9433C97.1759 50.5863 97.6349 50.2803 97.6349 49.7704ZM77.1861 27.3838C77.2371 27.1799 77.2881 26.9249 77.3391 26.7209C77.0841 26.7719 76.8802 26.8229 76.6252 26.7719L77.1861 27.3838ZM68.976 19.1737L73.1576 23.3553C68.1091 28.6077 65.2534 35.6449 65.1515 42.9371H59.2361C59.3381 34.0131 62.8057 25.548 68.976 19.1737ZM66.4263 51.7082L66.0694 51.6572L65.7124 51.3002L64.0296 51.1472L64.5395 51.8611L63.0097 51.5552L63.4176 51.1982L63.0607 50.8413L61.9388 51.3002L61.5309 52.0141L61.6838 53.697L62.9587 56.7566L63.5706 57.7255L63.9276 57.8275L62.9587 55.9917L62.7547 55.0738L62.9587 54.8698L62.8057 54.3599L63.3667 54.4619L64.2845 55.7877L64.4885 55.8897V54.9208L64.8455 55.1248L64.9475 55.6347L65.8654 55.8897L66.2733 55.5837L66.4263 55.6857V56.3997L66.8343 56.9096L67.3442 57.0116L68.4661 58.8474L69.129 59.0514L69.333 58.1845C70.5059 60.0712 71.8317 61.8561 73.4125 63.4369L69.231 67.6184C63.0097 61.3461 59.4401 52.932 59.2361 44.11H65.1515C65.2024 46.6597 65.6614 49.2604 66.4263 51.7082ZM72.2397 44.059C72.2397 44.6199 72.2907 45.1809 72.3927 45.7928L71.6787 45.9458L71.5258 46.6597L69.9959 48.5975L70.0469 51.2492L68.5171 51.7592H67.6502C66.8343 49.2604 66.4263 46.7107 66.3243 44.059H72.2397V44.059ZM73.5655 60.7342L74.8914 61.4991L75.1464 61.7031L74.1775 62.672C73.7185 62.213 73.3106 61.7541 72.9026 61.2441L73.5655 60.7342ZM78.9709 29.1686L83.1525 33.3502C82.2856 34.3191 81.5207 35.39 80.9597 36.5628H80.6537L80.0418 36.7158H79.8378L79.2259 37.2768L80.0418 37.1748L80.7557 37.0218L80.6028 37.2258L79.9908 37.6337H79.6849L78.767 38.3476L77.9001 38.2456L76.6252 40.6424L76.8802 41.1013L76.1662 41.9172L76.0643 42.9371H73.4125C73.4635 37.7867 75.4523 32.8912 78.9709 29.1686ZM83.2545 46.4557L83.5604 46.3028L84.3253 46.8637L83.9684 47.1187L84.8353 47.6796L84.7843 47.0677L85.2432 46.3028L85.7532 46.8127L86.2631 47.5266L85.3452 47.7816L85.7532 48.5975L86.3651 48.2405L86.2631 47.9856L86.7221 47.6796L86.9771 46.4048C87.334 47.1697 87.793 47.8836 88.3539 48.4955L84.1724 52.6771C82.1326 50.5353 80.8577 47.7816 80.5008 44.8239L81.3677 45.7418H82.1836L83.2545 46.4557ZM77.2371 42.0192L77.3391 40.8464L78.053 40.4384L79.3279 40.6424L79.5319 40.8464C79.4299 41.5093 79.3789 42.2232 79.3279 42.8861H77.9001L77.2371 42.0192ZM75.2993 46.0988L74.7384 46.9657H73.7695L73.7185 46.9147C73.5655 45.9968 73.4635 45.0279 73.4125 44.11H75.1973L74.7894 45.5378L75.2993 46.0988ZM79.2259 57.6235C78.8179 57.1646 78.359 56.7056 78.002 56.2467L78.206 54.7678L77.5941 53.34L77.4411 51.0962L76.7272 49.7194L76.8802 48.8525L76.0133 47.2207L75.2993 46.8637L75.6053 45.9968L75.2993 45.3339L75.6053 44.569H76.4212L76.7272 44.11H78.104L78.308 44.518L78.002 45.8948L77.8491 46.1498L78.359 47.2717L78.002 47.4756L77.7471 47.1697L77.6451 47.2717L77.9001 47.9346L78.308 48.6995H78.512L78.614 47.9856L78.41 47.7306V47.2717L78.359 46.3028L78.665 44.569L78.359 44.11H79.3279C79.5319 47.6286 80.9597 50.9433 83.4074 53.493L79.2259 57.6235ZM114.82 63.3349C119.868 58.1335 122.775 51.2492 122.928 44.059H128.843C128.639 52.83 125.121 61.2441 118.951 67.5164L114.82 63.3349ZM113.188 61.7031L113.647 61.1931L113.188 58.8984L112.882 58.7964L113.086 58.3884L112.117 58.0825L111.913 58.8984L111.811 59.9183L111.607 60.1222L109.823 58.3374C113.545 54.4619 115.687 49.4134 115.891 44.059H121.806C121.602 50.9942 118.849 57.5725 114.004 62.519L113.188 61.7031ZM107.987 67.2615L108.548 66.0886L108.344 65.5786L109.16 64.8647V64.4568L108.446 63.9978L109.007 62.8249L109.874 61.7031L109.007 60.7852H108.344L107.936 60.1222C108.293 59.8163 108.65 59.5103 108.956 59.2043L113.137 63.3859C111.607 64.8647 109.874 66.1906 107.987 67.2615ZM107.171 55.7367L106.61 55.1758L107.018 54.6148L107.579 53.493L107.375 53.187L107.732 52.3711L107.681 51.6062L107.477 50.8413L106.967 50.6883L106.763 51.0962L106.457 50.9942C106.916 50.3313 107.324 49.5664 107.681 48.8525L108.191 48.6485L108.497 48.2405L108.65 48.3935L109.007 47.9856L108.701 47.6286L108.956 47.5776L109.415 47.7816H110.332L110.893 47.4756L112.321 47.0677L112.066 46.6087L111.964 46.0478L112.729 46.4048L113.035 46.2518L112.882 45.6398L111.913 45.9968L110.893 45.7928L110.078 44.161H114.616C114.412 49.2094 112.372 54.0029 108.905 57.6235L108.293 57.0116L108.548 56.1957L108.089 54.3599L107.171 55.7367ZM105.029 33.5032L109.211 29.3216C110.18 30.3925 111.046 31.5654 111.811 32.7893L111.301 32.9422L111.352 33.8601L112.882 34.829C113.29 35.6959 113.596 36.5628 113.851 37.4807L113.596 37.8887L113.035 38.2966L112.882 39.1635L112.474 39.3675L112.168 39.7755L111.862 39.6225H111.301L111.607 39.1635L111.862 37.9907L112.27 37.7357L111.148 36.6648L110.332 36.9708L110.129 37.7867L109.619 38.3476L109.058 37.8887L108.854 37.3787L109.16 37.1748L109.313 37.4807L109.568 37.3787L109.466 36.8688H109.109V37.0728L108.854 37.1238L107.579 35.5939L107.12 35.237L107.273 35.084L107.681 34.931L107.273 34.778C107.273 34.778 106.814 34.88 106.763 34.88L107.018 35.237H106.355C105.947 34.5741 105.539 34.0131 105.029 33.5032ZM105.692 56.2977L104.417 55.9407L104.009 56.0937L103.295 55.5327L102.632 55.2778C102.989 55.0228 103.295 54.7678 103.601 54.5129L104.672 55.2778L105.488 55.6857L105.896 56.0937L105.692 56.2977ZM103.448 36.6648L103.958 36.5628V36.4608L103.448 36.1039L103.601 34.982L104.213 34.3191C104.621 34.778 104.978 35.237 105.335 35.7469L105.131 36.4099L104.57 36.0019L104.111 36.1039L104.315 36.5118H104.519L104.264 37.1238L104.111 36.8688L103.448 36.6648ZM110.536 40.7444L111.607 40.1834L112.678 40.0305L112.933 39.5205L113.545 39.1635L113.8 38.6536L114.004 37.7867C114.106 38.0927 114.157 38.3986 114.259 38.7046L113.698 40.3874V40.9484L114.412 39.7755C114.565 40.7954 114.667 41.8662 114.718 42.8861H109.517L109.415 42.4272L110.027 41.9682L110.129 41.6623L110.383 41.4583L111.097 41.3563L111.148 41.0503L110.536 40.7444ZM111.709 26.8739L113.137 26.9249L113.494 27.3328L113.341 27.9448L115.33 29.1686L115.738 29.1177L118.237 32.0243L119.257 31.6674C120.888 35.186 121.755 39.0616 121.806 42.9371H115.891C115.891 41.4073 115.687 39.9285 115.33 38.4496L115.585 38.0927L115.942 36.2059L115.687 34.2171L114.973 31.9223L113.341 29.5256L113.749 29.7296L113.953 29.5256L112.627 28.6077L112.525 28.9137L113.851 30.8005L114.616 32.3303L115.126 33.8601L115.279 34.88L115.534 36.6138L115.024 36.6648C115.024 36.6648 114.463 35.5939 114.259 35.135L114.514 34.727L114.004 34.0131V33.3502L113.647 32.8912L113.188 32.9422C113.035 32.6363 112.882 32.3303 112.678 32.0753L112.984 32.2283L113.086 32.1263L112.933 31.7694L113.341 31.5654L113.188 31.3614L112.627 31.5654L112.831 30.6475L112.474 30.4435L112.168 31.1574C111.505 30.1885 110.791 29.2706 110.027 28.4037L111.709 26.8739ZM119.257 19.2757C125.376 25.65 128.792 34.1151 128.894 42.9371H122.979C122.928 38.5516 121.908 34.2171 119.919 30.2905L119.97 30.1885L120.378 30.3925L120.48 30.0865L119.409 28.2507L118.135 26.5169L116.656 25.2931C116.146 24.6811 115.636 24.0692 115.075 23.4573L119.257 19.2757ZM94.0653 79.2451C113.953 79.2451 130.067 63.0799 130.016 43.1921C130.016 24.7321 116.044 9.28084 97.6859 7.39404L97.6349 7.59802C97.5839 7.95498 97.4819 8.26095 97.4309 8.56691C105.335 9.33183 112.729 12.7994 118.39 18.3578L114.412 22.3354L114.565 21.6215L114.055 21.3665L113.392 21.4175L113.545 20.9585L113.086 19.3267L112.117 18.2558L109.007 16.624L108.752 16.93L108.191 17.083C109.262 18.6128 109.823 20.4486 109.823 22.2844C109.823 22.5394 109.823 22.7434 109.823 22.9983L111.352 24.9361L110.638 25.0891L111.097 25.803L109.721 27.1799L109.16 26.16C108.905 26.8739 108.548 27.5878 108.14 28.1998L108.446 28.4547L104.213 32.6363C103.958 32.3813 103.703 32.1773 103.448 31.9223C103.04 32.1263 102.632 32.2793 102.224 32.4323L102.581 32.6873L102.377 32.8912L101.867 33.1462L101.663 33.6562L101.357 33.3502L100.491 33.6562L100.746 34.0641L101.357 33.9111L101.765 33.9621L101.816 33.7581L102.122 33.6052L102.224 33.4522L102.785 33.2992H103.193L103.448 33.5032L101.816 35.186L101.714 35.033L99.9806 35.339L99.5727 35.7469L99.2157 35.7979L100.287 34.778L99.8786 34.5741L98.8587 35.8999L99.1647 35.8489V36.3589L99.5217 36.5118L99.5727 37.0218L98.9607 36.9198L98.3488 37.0218L96.819 36.2569C96.819 36.2569 96.717 40.3364 96.717 42.3762C100.287 43.6001 104.111 45.3339 104.111 49.9234C104.162 51.8612 103.142 53.697 101.51 54.7678L101.408 54.8188L101.306 54.9208C99.8786 55.8897 97.9918 56.3997 96.36 56.9096L96.309 60.1222C98.9097 61.3971 102.02 63.2839 101.714 68.5873C101.663 69.9132 101.153 70.2701 100.746 70.3721C99.2157 70.7291 97.6349 70.984 96.105 71.086C96.105 71.494 96.105 71.9019 96.105 72.2589C102.836 71.8 109.16 68.9953 114.055 64.3548L118.237 68.5363C104.825 81.4889 83.5604 81.4889 70.0979 68.6383L74.2794 64.4568C79.1239 68.9953 85.3962 71.749 92.0255 72.2589C92.0255 71.9019 92.0255 71.494 92.0255 71.086C85.7022 70.5761 79.7868 67.9754 75.1973 63.5899L76.2682 62.468L77.7981 62.621L78.614 61.7541L80.7557 61.8561L81.0617 61.0911L80.9597 60.7852C84.1214 63.1819 87.895 64.7117 91.8725 65.1197C91.8725 64.6607 91.8725 64.2528 91.8725 63.9468C87.487 63.4369 83.4074 61.6011 80.1438 58.5924L84.3253 54.4109C85.3452 55.3288 86.4671 56.0937 87.742 56.7056C87.844 56.2977 87.9459 55.9407 88.1499 55.5837C87.079 55.0228 86.0592 54.3599 85.1922 53.595L89.3738 49.4134C90.0367 49.9234 90.8016 50.3823 91.5665 50.6373C91.5665 50.2293 91.5665 49.7704 91.5665 49.3624C91.0566 49.1585 90.5977 48.8525 90.1897 48.5465L91.3626 47.3736C90.9546 47.2717 90.5467 47.1187 90.1387 46.9657L89.3228 47.7816C88.9148 47.3226 88.5579 46.8127 88.3029 46.3028C87.589 45.9968 86.8751 45.6398 86.2121 45.1809C83.7644 43.702 82.2856 40.9993 82.3366 38.0927C82.2856 36.1549 82.8465 34.2171 84.0194 32.6873L79.8378 28.5057C82.8975 25.548 86.8241 23.6613 91.0056 22.9983C91.0056 22.5904 91.0056 22.1824 91.0056 21.8255C86.5181 22.4884 82.2856 24.5282 79.0219 27.6898L78.308 26.9759C78.155 27.2309 77.951 27.5878 77.7471 28.0468L78.206 28.5057C74.4834 32.4323 72.3927 37.6337 72.2907 43.0391H66.3243C66.4263 36.0529 69.129 29.3726 73.9735 24.2732L75.8603 26.16C75.9623 26.16 76.0133 26.16 76.1152 26.16C76.4722 26.109 76.8802 26.007 77.1861 25.854L74.7894 23.4573C76.0643 22.2334 77.4411 21.1115 78.9199 20.1426C79.0219 19.8367 79.0729 19.5307 79.2259 19.2757C79.4809 18.8678 79.7868 18.4598 80.1438 18.0519C77.9001 19.2757 75.8603 20.8056 74.0245 22.5904L69.8429 18.4088C75.4523 12.9524 82.7445 9.53581 90.5977 8.7199C90.5977 8.56691 90.5467 8.46493 90.5467 8.46493C90.4957 8.15896 90.4447 7.90399 90.3937 7.54703C70.5569 9.5868 56.2274 27.2819 58.3182 47.0677C60.256 65.3747 75.6563 79.2961 94.0653 79.2451ZM111.76 16.981L111.403 16.4201L110.638 16.0121L110.027 16.471L110.791 16.879L111.658 17.4909L111.76 16.981ZM108.191 33.7071L108.242 34.1661L109.262 33.8601L109.568 33.2482L108.854 32.3303L109.211 31.7694L110.179 32.4323L110.332 32.2793L110.129 32.1263L109.925 31.7184L110.332 31.5144L109.925 31.0044L109.007 31.4634L108.701 32.0243L108.497 32.5343L108.905 33.1972L108.752 33.5032L108.191 33.7071ZM65.4574 60.2242L65.5084 59.9693L64.9985 58.7964L64.3865 58.5414L65.4574 60.2242ZM89.5778 37.9907C89.5778 39.0106 90.1897 39.6735 91.2606 40.2854C91.2606 40.2854 91.2606 40.1324 91.2606 39.8265L90.5977 39.1126L90.9546 38.4496L91.2606 38.3476C91.2096 37.1748 91.2096 35.8999 91.2096 35.6959H91.1586C90.1387 36.3079 89.6288 37.0218 89.5778 37.9907Z" fill="#009CDE"/>
<path d="M96.207 63.6412C98.0428 64.5591 99.7766 65.8849 100.491 68.3326C100.797 64.2531 98.5018 62.5193 96.258 61.2954L96.207 63.6412Z" fill="#009CDE"/>
<path d="M108.548 22.2845C108.548 18.5619 105.845 14.4824 99.2667 13.0545C98.6038 12.9525 97.9408 12.8506 97.2779 12.7996C97.2779 13.3605 97.2269 14.6354 97.2269 14.6354C97.2269 15.0433 97.1759 16.5222 97.1759 16.8281C97.5839 16.8791 98.0428 16.9301 98.4508 16.9811C102.275 17.899 103.652 20.0918 103.652 22.2335C103.652 25.7521 100.644 27.078 96.9719 28.0979L95.7481 28.4038C94.6262 28.6588 93.4533 28.9648 92.3315 29.2708C91.9235 29.3727 91.5155 29.4747 91.1076 29.6277C87.028 30.8516 83.5094 32.8404 83.5094 37.8888C83.5094 42.9373 87.538 44.773 91.4646 45.9969C91.4646 44.5691 91.4136 43.0902 91.3626 41.6624C89.5778 40.8465 88.4049 39.7756 88.4049 37.9908C88.4049 36.206 89.5268 35.1861 91.2096 34.4212C91.5665 34.2682 91.9745 34.1152 92.4334 33.9622C93.4023 33.6053 94.5242 33.3503 95.6461 33.0443L96.87 32.7384C102.377 31.4125 108.599 29.6787 108.548 22.2845Z" fill="#009CDE"/>
<path d="M88.7109 57.6238C88.7109 59.6635 90.1897 60.7344 91.6686 61.6013C91.6686 61.2444 91.6176 58.1337 91.6176 58.0827C91.6686 57.4708 92.2295 57.0628 92.7394 56.8589C93.5043 56.5019 94.3203 56.1959 95.1362 55.941C95.5951 55.788 95.9521 55.635 96.36 55.533C99.3687 54.6151 102.836 53.4932 102.836 49.8216C102.836 46.15 99.8786 44.6712 96.615 43.5493C96.564 44.7222 96.564 46.405 96.513 47.5779C97.8899 48.0878 98.8078 48.7507 98.8078 49.8216C98.8078 51.1475 97.4309 51.8614 96.411 52.2694C96.0031 52.4223 95.3911 52.6263 95.1872 52.6773C94.3713 52.9323 93.5553 53.1873 92.7394 53.4932C92.3315 53.6462 91.9235 53.7992 91.5156 54.0032C90.1897 54.7171 88.7109 55.788 88.7109 57.6238Z" fill="#009CDE"/>
<path d="M90.7506 13.3606C89.5268 13.7686 88.3029 14.2275 87.13 14.8394C85.8552 15.2474 84.0194 15.3494 82.1326 17.3892C81.5206 18.1031 80.9597 18.868 80.3988 19.6329C79.8378 20.4488 79.7868 21.7747 79.3789 22.4376C78.7669 23.4575 78.9199 24.0694 78.9199 24.0694C78.8179 24.5284 78.563 24.9873 78.257 25.3443C77.6451 26.0582 76.7272 26.4152 75.8093 26.2622C76.6762 26.6701 77.849 26.1092 77.849 26.1092C77.6451 26.6701 77.4921 27.2311 77.3901 27.792C78.359 25.5992 79.2259 24.8343 79.5319 24.5794C79.9398 24.6814 80.8067 24.6304 82.3875 23.7125C84.1723 22.6926 86.875 21.0098 87.64 19.9389C88.4559 18.868 89.5268 18.0011 90.8016 17.5421C90.8016 16.0123 90.7506 14.5845 90.7506 13.3606ZM83.2035 20.1428L82.2856 20.3468L83.4074 18.511L84.6823 18.562L83.2035 20.1428Z" fill="#009CDE"/>
<path d="M94.4732 57.3687C94.3202 57.4197 93.8613 57.6237 93.5553 57.7257C93.2494 57.8277 92.8924 57.9807 92.8924 58.0827C92.8924 58.0827 93.1984 73.7889 93.1984 74.0949C93.1984 77.3075 94.8302 77.3585 94.8302 74.0949C94.8302 73.8909 95.1871 57.1138 95.1871 57.1138C95.1871 57.1138 94.7282 57.2668 94.4732 57.3687Z" fill="#009CDE"/>
<path d="M92.7394 52.1674C93.2494 52.0144 93.7593 51.8104 94.2182 51.7084C94.5752 51.6064 94.8812 51.5044 95.2381 51.4025C95.2381 50.4336 95.5441 36.7671 95.5951 34.3193C94.5242 34.5743 93.4533 34.8803 92.4334 35.2372C92.4844 37.073 92.7394 50.6885 92.7394 52.1674Z" fill="#009CDE"/>
<path d="M94.1163 0C89.5268 0 91.4646 6.83325 91.8215 9.077C91.8215 9.17899 92.1785 24.5283 92.2805 28.0469C92.9944 27.8429 93.6573 27.69 94.3712 27.537L95.7481 27.18C95.7991 23.7634 96.156 9.128 96.156 9.02601C96.462 6.68027 98.8587 0 94.1163 0Z" fill="#009CDE"/>
</svg>
