<svg width="82" height="75" viewBox="0 0 82 75" fill="none" xmlns="http://www.w3.org/2000/svg">
<path d="M20.3927 54.6639C6.60164 40.917 -0.00256969 34.2593 7.50039e-07 34.106C0.00452617 33.8368 12.9783 20.813 13.242 20.813C13.3357 20.813 17.484 24.8858 22.4605 29.8638C27.437 34.8418 31.5222 38.9147 31.5387 38.9147C31.5551 38.9147 31.5686 30.1893 31.5686 19.5251V0.135543L31.8232 0.0673082C32.2086 -0.035971 50.2713 -0.0140578 50.435 0.0898912C50.5486 0.16199 50.5772 4.03467 50.5764 19.2014C50.5755 29.663 50.6167 38.248 50.6671 38.2792C50.7175 38.3103 54.7012 34.3932 59.5197 29.5744C64.3382 24.7556 68.3315 20.813 68.3936 20.813C68.5412 20.813 81.6875 33.9575 81.6884 34.106C81.6893 34.1685 75.5649 40.3543 68.0798 47.8524C60.5946 55.3504 51.4436 64.5271 47.7442 68.245C44.0448 71.963 40.9665 75.0027 40.9036 75C40.8407 74.9973 31.6108 65.8461 20.3927 54.6639V54.6639Z" fill="black"/>
</svg>
