<svg width="150" height="150" viewBox="0 0 150 150" fill="none" xmlns="http://www.w3.org/2000/svg">
<path fill-rule="evenodd" clip-rule="evenodd" d="M65.0442 91.6653V115.197H84.9557V91.6653L104.867 103.431L114.823 86.2349L94.9115 74.9216L114.823 63.1557L104.867 45.9594L84.5032 57.7253V34.646H65.0442V57.7253L45.1327 45.9594L35.177 63.1557L55.0885 74.9216L35.177 86.2349L45.1327 103.431L65.0442 91.6653Z" fill="black"/>
<path fill-rule="evenodd" clip-rule="evenodd" d="M75 17.2566C43.1092 17.2566 17.2566 43.1092 17.2566 75C17.2566 106.891 43.1092 132.743 75 132.743C106.891 132.743 132.743 106.891 132.743 75C132.743 43.1092 106.891 17.2566 75 17.2566ZM0 75C0 33.5786 33.5786 0 75 0C116.421 0 150 33.5786 150 75C150 116.421 116.421 150 75 150C33.5786 150 0 116.421 0 75Z" fill="black"/>
</svg>
